# This file uses centimeters as units for non-parametric coordinates.

g default
v -2.189052 10.145471 -3.883908
v -2.189052 10.145471 3.883908
v -1.925264 10.515981 3.093396
v -1.925264 10.515981 -3.093396
v 1.556232 10.883167 3.612559
v 1.556232 10.883167 -3.612559
v 1.535841 10.989799 -3.342204
v 1.535841 10.989799 3.342204
v -2.066264 4.751377 3.426564
v -2.448272 7.086206 4.019297
v -0.137404 4.945822 5.217732
v 0.047075 5.188763 5.163934
v 0.608296 4.850390 5.255422
v 0.565967 5.050501 5.281690
v 1.789484 4.863440 4.434080
v 0.920315 5.023323 5.050326
v -0.524465 11.078372 5.206638
v -0.659316 11.294404 3.608307
v 0.506002 11.336516 5.214303
v 0.477885 11.489936 4.672625
v 0.929311 11.299069 4.918032
v 0.899115 11.443551 4.663455
v -0.659316 11.294404 -3.608293
v -0.524465 11.078372 -5.206587
v 0.477885 11.489936 -4.672583
v 0.506002 11.336516 -5.214252
v 0.899115 11.443551 -4.663426
v 0.929311 11.299069 -4.918004
v -2.066265 4.751377 -3.425862
v -2.448272 7.086206 -4.019297
v 0.041200 5.178790 -5.163502
v -0.137404 4.945822 -5.222285
v 0.565967 5.050501 -5.281865
v 0.608296 4.850390 -5.255566
v 0.920315 5.023323 -5.050327
v 1.789484 4.863440 -4.434229
v 1.811953 5.287646 3.925597
v 1.829510 5.504194 4.131343
v 1.982876 5.746575 3.490416
v 1.969076 5.857630 3.752297
v 1.887852 11.205876 4.133304
v 1.868754 11.355893 3.869383
v 1.913587 11.025260 3.741251
v 1.893149 11.173313 3.480036
v 1.868754 11.355893 -3.869380
v 1.887852 11.205876 -4.133302
v 1.893149 11.173313 -3.480036
v 1.913587 11.025260 -3.741251
v 1.829510 5.504194 -4.131340
v 1.811953 5.287646 -3.925545
v 1.969076 5.857630 -3.752297
v 1.982876 5.746575 -3.490416
v 1.628814 5.930475 -3.612559
v 1.628814 5.827122 -3.342204
v 1.628814 5.827122 3.342204
v 1.628814 5.930475 3.612559
v -0.137404 1.359101 -5.017742
v -2.066265 1.359105 -3.425862
v -0.137404 1.359101 5.017596
v -2.066264 1.359105 3.426564
v 1.423531 1.359100 -5.017741
v 1.423531 1.359100 5.017595
v 1.423531 3.092873 -5.017741
v 1.423531 3.092873 5.017595
v 1.588242 3.384890 -4.815931
v 1.588242 3.384890 4.815782
v -2.296175 9.156996 0.000000
v 1.622587 8.970751 0.000000
v -0.137404 4.020843 -5.017742
v -2.066265 4.493764 -3.425862
v -2.066264 4.493764 3.426564
v -0.137404 4.020843 5.017596
v 0.608296 3.925413 -5.017741
v 0.608296 3.925413 5.017595
v 1.789484 3.938462 -4.393889
v 1.789484 3.938462 4.393739
v -0.137404 3.667043 -5.017742
v -2.066265 3.944775 -3.425862
v -2.066264 3.944775 3.426564
v -0.137404 3.667043 5.017596
v 0.608296 3.611000 -5.017741
v 0.608296 3.611000 5.017595
v 1.704965 3.678511 -4.672948
v 1.704965 3.678511 4.672799
v -0.137404 3.092874 -5.017742
v -2.066265 3.092876 -3.425862
v -2.066264 3.092876 3.426564
v -0.137404 3.092874 5.017596
vt 0.234164 0.657116
vt 0.490909 0.532281
vt 0.643699 0.758769
vt 0.648003 0.917225
vt 0.089385 0.656102
vt 0.566225 0.532951
vt 0.670083 0.553017
vt 0.352490 0.273688
vt 0.451047 0.210001
vt 0.086107 0.459847
vt 0.459266 0.197661
vt 0.116977 0.753175
vt 0.333531 0.059692
vt 0.122324 0.951336
vt 0.712717 0.063481
vt 0.616904 0.197396
vt 0.584314 0.198925
vt 0.575544 0.148692
vt 0.970230 0.696829
vt 0.755274 0.973923
vt 0.058008 0.768647
vt 0.230771 0.453998
vt 0.307977 0.294190
vt 0.346303 0.271241
vt 0.168114 0.185213
vt 0.426703 0.195469
vt 0.265041 0.106643
vt 0.465189 0.750353
vt 0.307869 0.727184
vt 0.470194 0.935203
vt 0.256447 0.968242
vt 0.875634 0.192221
vt 0.809953 0.133023
vt 0.733891 0.298980
vt 0.670771 0.257115
vt 0.386536 0.550458
vt 0.347433 0.559000
vt 0.577591 0.179103
vt 0.704292 0.063584
vt 0.107887 0.763070
vt 0.431794 0.179458
vt 0.466392 0.177976
vt 0.961921 0.691269
vt 0.612128 0.181290
vt 0.750733 0.700503
vt 0.112699 0.941947
vt 0.062761 0.939103
vt 0.341953 0.059961
vt 0.974842 0.970247
vt 0.234944 0.127309
vt 0.371666 0.254103
vt 0.314432 0.966886
vt 0.249896 0.729002
vt 0.695793 0.274752
vt 0.780269 0.111771
vt 0.607133 0.216755
vt 0.135320 0.557180
vt 0.863286 0.866204
vt 0.491512 0.537023
vt 0.389596 0.566755
vt 0.666777 0.569239
vt 0.565532 0.537672
vt 0.350321 0.575452
vt 0.368433 0.295701
vt 0.591352 0.238177
vt 0.451436 0.236770
vt 0.492645 0.547142
vt 0.390661 0.572992
vt 0.665611 0.575450
vt 0.564209 0.547712
vt 0.351284 0.581001
vt 0.373893 0.303241
vt 0.594062 0.249062
vt 0.448500 0.247670
vt 0.494184 0.562784
vt 0.392383 0.583171
vt 0.663715 0.585586
vt 0.562393 0.563197
vt 0.309722 0.597939
vt 0.440529 0.276277
vt 0.596727 0.262026
vt 0.445582 0.260554
vt 0.497195 0.594423
vt 0.397804 0.614188
vt 0.657732 0.616275
vt 0.558880 0.594433
vt 0.600811 0.328087
vt 0.740179 0.632553
vt 0.453064 0.159302
vt 0.059438 0.760039
vt 0.678149 0.047068
vt 0.591257 0.160721
vt 0.758851 0.694668
vt 0.456659 0.162907
vt 0.966739 0.977138
vt 0.763603 0.980538
vt 0.105885 0.753090
vt 0.368415 0.043962
vt 0.064639 0.947620
vt 0.111245 0.952022
vt 0.119277 0.960707
vt 0.251991 0.977477
vt 0.113425 0.743984
vt 0.244945 0.720022
vt 0.311322 0.982664
vt 0.454545 0.978655
vt 0.303903 0.711599
vt 0.447196 0.707801
vt 0.974028 0.300715
vt 0.067622 0.291770
vt 0.727387 0.490519
vt 0.649928 0.439405
vt 0.711114 0.346684
vt 0.788573 0.397799
vt 0.874584 0.475670
vt 0.832804 0.538982
vt 0.704830 0.584037
vt 0.667566 0.306216
vt 0.705879 0.578491
vt 0.673178 0.298781
vt 0.689557 0.277081
vt 0.349074 0.555023
vt 0.376481 0.548180
vt 0.937642 0.384436
vt 0.680424 0.550707
vt 0.102370 0.376183
vt 0.746103 0.601614
vt 0.440165 0.326457
vt 0.601484 0.277955
vt 0.315150 0.628961
vt 0.688370 0.937777
vt 0.683057 0.736094
vt 0.493708 0.485084
vt 0.565259 0.487669
vt 0.708992 0.562045
vt 0.707404 0.558046
vt 0.435910 0.182844
vt 0.469060 0.147610
vt 0.587592 0.164255
vt 0.607946 0.184595
vt 0.436088 0.215024
vt 0.592284 0.211428
vt 0.612903 0.203302
vt 0.430586 0.201455
vn 0.814628 -0.579983 0.000000
vn 0.814628 -0.579983 0.000000
vn 0.814628 -0.579983 0.000000
vn 0.814628 -0.579983 0.000000
vn -0.982202 -0.187826 0.000000
vn -0.982202 -0.187826 0.000000
vn -0.982202 -0.187826 0.000000
vn -0.982202 -0.187826 0.000000
vn 0.595138 0.207898 -0.776266
vn 0.595138 0.207898 -0.776266
vn 0.595138 0.207898 -0.776266
vn 0.595138 0.207898 -0.776266
vn 0.104151 -0.094932 -0.990020
vn 0.104151 -0.094932 -0.990020
vn 0.104151 -0.094932 -0.990020
vn 0.104151 -0.094932 -0.990020
vn -0.564702 0.041319 -0.824260
vn -0.564702 0.041319 -0.824260
vn -0.564702 0.041319 -0.824260
vn -0.564702 0.041319 -0.824260
vn 0.572886 -0.802618 -0.166149
vn 0.572886 -0.802618 -0.166149
vn 0.572886 -0.802618 -0.166149
vn 0.572886 -0.802618 -0.166149
vn 0.287774 -0.939824 -0.184166
vn 0.287774 -0.939824 -0.184166
vn 0.287774 -0.939824 -0.184166
vn 0.287774 -0.939824 -0.184166
vn -0.210374 -0.920594 -0.329014
vn -0.210374 -0.920594 -0.329014
vn -0.210374 -0.920594 -0.329014
vn -0.210374 -0.920594 -0.329014
vn 0.572884 -0.802619 0.166152
vn 0.572884 -0.802619 0.166152
vn 0.572884 -0.802619 0.166152
vn 0.572884 -0.802619 0.166152
vn 0.287773 -0.939823 0.184170
vn 0.287773 -0.939823 0.184170
vn 0.287773 -0.939823 0.184170
vn 0.287773 -0.939823 0.184170
vn -0.210362 -0.920595 0.329018
vn -0.210362 -0.920595 0.329018
vn -0.210362 -0.920595 0.329018
vn -0.210362 -0.920595 0.329018
vn 0.596632 0.208612 0.774927
vn 0.596632 0.208612 0.774927
vn 0.596632 0.208612 0.774927
vn 0.596632 0.208612 0.774927
vn 0.099515 -0.105529 0.989424
vn 0.099515 -0.105529 0.989424
vn 0.099515 -0.105529 0.989424
vn 0.099515 -0.105529 0.989424
vn -0.564778 0.040808 0.824233
vn -0.564778 0.040808 0.824233
vn -0.564778 0.040808 0.824233
vn -0.564778 0.040808 0.824233
vn -0.727521 -0.255409 -0.636772
vn -0.727521 -0.255409 -0.636773
vn -0.727521 -0.255409 -0.636772
vn -0.727521 -0.255409 -0.636772
vn -0.964106 0.221041 -0.147107
vn -0.964106 0.221041 -0.147107
vn -0.964106 0.221041 -0.147107
vn -0.964106 0.221041 -0.147107
vn -0.418106 -0.806378 -0.418260
vn -0.418106 -0.806378 -0.418260
vn -0.418106 -0.806378 -0.418260
vn -0.418106 -0.806378 -0.418260
vn -0.991001 -0.133849 -0.001364
vn -0.991001 -0.133849 -0.001364
vn -0.991001 -0.133849 -0.001364
vn -0.991001 -0.133849 -0.001364
vn -0.418096 -0.806382 0.418262
vn -0.418096 -0.806382 0.418262
vn -0.418096 -0.806382 0.418262
vn -0.418096 -0.806382 0.418262
vn -0.991001 -0.133849 0.001364
vn -0.991001 -0.133849 0.001364
vn -0.991001 -0.133849 0.001364
vn -0.991001 -0.133849 0.001364
vn -0.727490 -0.255552 0.636751
vn -0.727490 -0.255552 0.636751
vn -0.727490 -0.255552 0.636751
vn -0.727490 -0.255552 0.636751
vn -0.964104 0.221055 0.147101
vn -0.964104 0.221055 0.147101
vn -0.964104 0.221055 0.147101
vn -0.964104 0.221055 0.147101
vn -0.336448 -0.876480 -0.344362
vn -0.336448 -0.876480 -0.344362
vn -0.336448 -0.876480 -0.344362
vn -0.336448 -0.876480 -0.344362
vn -0.336448 -0.876480 0.344362
vn -0.336448 -0.876480 0.344362
vn -0.336448 -0.876480 0.344362
vn -0.336448 -0.876480 0.344362
vn -0.499865 0.765495 -0.405157
vn -0.499865 0.765495 -0.405158
vn -0.499865 0.765495 -0.405158
vn -0.499865 0.765495 -0.405157
vn -0.499865 0.765495 0.405157
vn -0.499865 0.765495 0.405158
vn -0.499865 0.765495 0.405158
vn -0.499865 0.765495 0.405158
vn 0.511658 0.008959 -0.859143
vn 0.511658 0.008959 -0.859143
vn 0.511658 0.008959 -0.859143
vn 0.511658 0.008959 -0.859143
vn 0.080519 0.002156 -0.996751
vn 0.080519 0.002156 -0.996751
vn 0.080519 0.002156 -0.996751
vn 0.080519 0.002156 -0.996751
vn -0.673433 -0.004258 -0.739236
vn -0.673433 -0.004258 -0.739236
vn -0.673433 -0.004258 -0.739236
vn -0.673433 -0.004258 -0.739236
vn 0.169455 -0.985538 0.000000
vn 0.169455 -0.985538 0.000000
vn 0.169455 -0.985538 0.000000
vn 0.169455 -0.985538 0.000000
vn -0.090035 -0.995939 0.000000
vn -0.090035 -0.995939 0.000000
vn -0.090035 -0.995939 0.000000
vn -0.090035 -0.995939 0.000000
vn 0.512085 0.008667 0.858891
vn 0.512085 0.008667 0.858891
vn 0.512085 0.008667 0.858891
vn 0.512085 0.008667 0.858891
vn 0.080593 0.002131 0.996745
vn 0.080593 0.002131 0.996745
vn 0.080593 0.002131 0.996745
vn 0.080593 0.002131 0.996745
vn -0.673428 -0.004260 0.739241
vn -0.673428 -0.004260 0.739241
vn -0.673428 -0.004260 0.739241
vn -0.673428 -0.004260 0.739241
vn 0.000002 1.000000 0.000000
vn 0.000002 1.000000 0.000000
vn 0.000002 1.000000 0.000000
vn 0.000002 1.000000 0.000000
vn 0.000000 1.000000 0.000000
vn 0.000000 1.000000 0.000000
vn 0.000000 1.000000 0.000000
vn 0.000000 1.000000 0.000000
vn -0.998600 0.052894 0.000000
vn -0.998600 0.052894 0.000000
vn -0.998600 0.052894 0.000000
vn -0.998600 0.052894 0.000000
vn -0.937116 0.349018 0.000000
vn -0.937116 0.349018 0.000000
vn -0.937116 0.349018 0.000000
vn -0.937116 0.349018 0.000000
vn -0.977789 0.000081 0.209592
vn -0.977789 0.000081 0.209592
vn -0.977789 0.000081 0.209592
vn -0.977789 0.000081 0.209592
vn -0.991192 -0.132436 0.000000
vn -0.991192 -0.132436 0.000000
vn -0.991192 -0.132436 0.000000
vn -0.991192 -0.132436 0.000000
vn -0.977789 0.000081 -0.209591
vn -0.977789 0.000081 -0.209591
vn -0.977789 0.000081 -0.209591
vn -0.977789 0.000081 -0.209591
vn -0.221827 -0.975086 0.000000
vn -0.221827 -0.975086 0.000000
vn -0.221827 -0.975086 0.000000
vn -0.221827 -0.975086 0.000000
vn -0.358807 -0.003522 -0.933405
vn -0.358807 -0.003522 -0.933405
vn -0.358807 -0.003522 -0.933405
vn -0.358807 -0.003522 -0.933405
vn -0.456865 0.889536 0.000000
vn -0.456865 0.889536 0.000000
vn -0.456865 0.889536 0.000000
vn -0.456865 0.889536 0.000000
vn -0.358807 -0.003522 0.933405
vn -0.358807 -0.003522 0.933405
vn -0.358807 -0.003522 0.933405
vn -0.358807 -0.003522 0.933405
vn -0.562267 -0.015424 -0.826812
vn -0.562267 -0.015424 -0.826812
vn -0.562267 -0.015424 -0.826812
vn -0.562267 -0.015424 -0.826812
vn -0.109457 -0.993992 0.000000
vn -0.109457 -0.993992 0.000000
vn -0.109457 -0.993992 0.000000
vn -0.109457 -0.993992 0.000000
vn -0.562377 -0.015440 0.826737
vn -0.562377 -0.015440 0.826737
vn -0.562377 -0.015440 0.826737
vn -0.562377 -0.015440 0.826737
vn -0.871000 0.491283 0.000000
vn -0.871000 0.491283 0.000000
vn -0.871000 0.491283 0.000000
vn -0.871000 0.491283 0.000000
vn 0.997313 -0.073252 0.000000
vn 0.997313 -0.073252 0.000000
vn 0.997313 -0.073252 0.000000
vn 0.996390 -0.084689 0.005928
vn 0.996390 -0.084689 0.005928
vn 0.996390 -0.084689 0.005928
vn 0.986878 0.161466 -0.000000
vn 0.986878 0.161466 -0.000000
vn 0.986878 0.161466 -0.000000
vn 0.986878 0.161466 -0.000000
vn 0.996390 -0.084689 -0.005928
vn 0.996390 -0.084689 -0.005928
vn 0.996390 -0.084689 -0.005928
vn 0.994179 -0.107740 0.000000
vn 0.994179 -0.107740 0.000000
vn 0.994179 -0.107740 0.000000
vn -0.999998 -0.002048 0.000000
vn -0.999998 -0.002048 0.000000
vn -0.999998 -0.002048 0.000000
vn -0.999836 -0.014653 -0.010608
vn -0.999836 -0.014653 -0.010608
vn -0.999836 -0.014653 -0.010608
vn -1.000000 0.000000 0.000000
vn -1.000000 0.000000 0.000000
vn -1.000000 0.000000 0.000000
vn -1.000000 0.000000 0.000000
vn -0.999836 -0.014653 0.010608
vn -0.999836 -0.014653 0.010608
vn -0.999836 -0.014653 0.010608
vn 0.659683 0.128087 0.740549
vn 0.659683 0.128087 0.740549
vn 0.659683 0.128087 0.740549
vn 0.659683 0.128087 0.740549
vn 0.659138 0.125485 -0.741479
vn 0.659138 0.125485 -0.741479
vn 0.659138 0.125485 -0.741479
vn 0.659138 0.125485 -0.741479
vn 1.000000 0.000000 -0.000000
vn 1.000000 0.000000 -0.000000
vn 1.000000 0.000000 -0.000000
vn 1.000000 0.000000 -0.000000
vn 0.051397 0.232259 0.971295
vn 0.051397 0.232259 0.971295
vn 0.051397 0.232259 0.971295
vn 0.051397 0.232259 0.971295
vn 0.053995 0.230038 -0.971683
vn 0.053995 0.230038 -0.971683
vn 0.053995 0.230038 -0.971683
vn 0.053995 0.230038 -0.971683
vn -0.518636 0.127131 0.845491
vn -0.518636 0.127131 0.845491
vn -0.518636 0.127131 0.845491
vn -0.518636 0.127131 0.845491
vn -1.000000 0.000000 0.000000
vn -1.000000 0.000000 0.000000
vn -1.000000 0.000000 0.000000
vn -1.000000 0.000000 0.000000
vn -0.518638 0.127131 -0.845489
vn -0.518638 0.127131 -0.845489
vn -0.518638 0.127131 -0.845489
vn -0.518638 0.127131 -0.845489
vn 0.636519 0.000000 0.771261
vn 0.636519 0.000000 0.771261
vn 0.636519 0.000000 0.771261
vn 0.636519 0.000000 0.771261
vn 0.636317 0.000000 -0.771428
vn 0.636317 0.000000 -0.771428
vn 0.636317 0.000000 -0.771428
vn 0.636317 0.000000 -0.771428
vn 1.000000 0.000000 -0.000000
vn 1.000000 0.000000 -0.000000
vn 1.000000 0.000000 -0.000000
vn 1.000000 0.000000 -0.000000
vn -0.000002 0.000000 1.000000
vn -0.000002 0.000000 1.000000
vn -0.000002 0.000000 1.000000
vn -0.000002 0.000000 1.000000
vn -0.000001 0.000000 -1.000000
vn -0.000001 0.000000 -1.000000
vn -0.000001 0.000000 -1.000000
vn -0.000001 0.000000 -1.000000
vn -0.353131 -0.366304 0.860883
vn -0.353131 -0.366303 0.860883
vn -0.353131 -0.366304 0.860883
vn -0.353131 -0.366304 0.860883
vn -0.950997 0.309200 0.000000
vn -0.950997 0.309200 0.000000
vn -0.950997 0.309200 0.000000
vn -0.950997 0.309200 0.000000
vn -0.353133 -0.366304 -0.860883
vn -0.353133 -0.366304 -0.860883
vn -0.353133 -0.366304 -0.860883
vn -0.353133 -0.366304 -0.860883
vn 0.636518 0.000000 0.771262
vn 0.636518 0.000000 0.771262
vn 0.636518 0.000000 0.771262
vn 0.636518 0.000000 0.771262
vn 0.636317 0.000000 -0.771428
vn 0.636317 0.000000 -0.771428
vn 0.636317 0.000000 -0.771428
vn 0.636317 0.000000 -0.771428
vn 1.000000 0.000000 -0.000000
vn 1.000000 0.000000 -0.000000
vn 1.000000 0.000000 -0.000000
vn 1.000000 0.000000 -0.000000
vn -0.000001 -0.000001 1.000000
vn -0.000001 -0.000001 1.000000
vn -0.000001 -0.000001 1.000000
vn -0.000001 -0.000001 1.000000
vn -0.000001 -0.000001 -1.000000
vn -0.000001 -0.000001 -1.000000
vn -0.000001 -0.000001 -1.000000
vn -0.000001 -0.000001 -1.000000
vn -0.270988 -0.388328 0.880776
vn -0.270988 -0.388328 0.880776
vn -0.270988 -0.388328 0.880776
vn -0.270988 -0.388328 0.880776
vn -0.929266 0.369412 0.000000
vn -0.929266 0.369412 0.000000
vn -0.929266 0.369412 0.000000
vn -0.929266 0.369412 0.000000
vn -0.270992 -0.388330 -0.880774
vn -0.270992 -0.388330 -0.880774
vn -0.270992 -0.388330 -0.880774
vn -0.270992 -0.388330 -0.880774
vn 0.636519 0.000000 0.771261
vn 0.636519 0.000000 0.771261
vn 0.636519 0.000000 0.771261
vn 0.636519 0.000000 0.771261
vn 0.636317 0.000000 -0.771428
vn 0.636317 0.000000 -0.771428
vn 0.636317 0.000000 -0.771428
vn 0.636317 0.000000 -0.771428
vn 1.000000 0.000000 -0.000000
vn 1.000000 0.000000 -0.000000
vn 1.000000 0.000000 -0.000000
vn 1.000000 0.000000 -0.000000
vn -0.000001 0.000000 1.000000
vn -0.000001 0.000000 1.000000
vn -0.000001 0.000000 1.000000
vn -0.000001 0.000000 1.000000
vn -1.000000 0.000000 0.000000
vn -1.000000 0.000000 0.000000
vn -1.000000 0.000000 0.000000
vn -1.000000 0.000000 0.000000
vn -0.000001 0.000000 -1.000000
vn -0.000001 0.000000 -1.000000
vn -0.000001 0.000000 -1.000000
vn -0.000001 0.000000 -1.000000
vn -0.999399 -0.034676 0.000000
vn -0.999399 -0.034676 0.000000
vn -0.999399 -0.034676 0.000000
vn 0.523794 -0.851845 0.000000
vn 0.523794 -0.851845 0.000000
vn 0.523794 -0.851845 0.000000
vn 0.523794 -0.851845 0.000000
s off
g pCube1
f 1/131/1 4/4/2 3/3/3 2/132/4
f 5/49/5 8/95/6 7/96/7 6/20/8
f 10/134/9 12/125/10 11/7/11 9/6/12
f 12/125/13 14/136/14 13/135/15 11/7/16
f 14/24/17 16/51/18 15/141/19 13/8/20
f 3/3/21 18/28/22 17/108/23 2/132/24
f 18/28/25 20/29/26 19/107/27 17/108/28
f 20/29/29 22/53/30 21/104/31 19/107/32
f 1/131/33 24/106/34 23/30/35 4/4/36
f 24/106/37 26/105/38 25/52/39 23/30/40
f 26/105/41 28/102/42 27/31/43 25/52/44
f 29/2/45 32/36/46 31/123/47 30/133/48
f 32/36/49 34/37/50 33/122/51 31/123/52
f 34/121/53 36/56/54 35/35/55 33/54/56
f 16/51/57 38/26/58 37/144/59 15/141/60
f 38/26/61 40/41/62 39/137/63 37/144/64
f 22/53/65 42/12/66 41/103/67 21/104/68
f 42/12/69 44/40/70 43/97/71 41/103/72
f 28/102/73 46/101/74 45/14/75 27/31/76
f 46/101/77 48/100/78 47/46/79 45/14/80
f 36/56/81 50/143/82 49/16/83 35/35/84
f 50/143/85 52/140/86 51/44/87 49/16/88
f 52/140/89 54/139/90 53/92/91 51/44/92
f 40/41/93 56/89/94 55/94/95 39/137/96
f 48/100/97 6/99/98 7/47/99 47/46/100
f 44/40/101 8/21/102 5/90/103 43/97/104
f 10/126/105 2/110/106 17/25/107 12/23/108
f 12/23/109 17/25/110 19/50/111 14/24/112
f 16/51/113 21/27/114 41/13/115 38/26/116
f 18/28/117 23/30/118 25/52/119 20/29/120
f 22/53/121 27/31/122 45/14/123 42/12/124
f 1/109/125 30/124/126 31/34/127 24/32/128
f 24/32/129 31/34/130 33/54/131 26/33/132
f 28/55/133 35/35/134 49/16/135 46/15/136
f 58/115/137 60/116/138 59/111/139 57/114/140
f 57/114/141 59/111/142 62/112/143 61/113/144
f 36/142/145 15/9/146 37/11/147 50/17/148
f 37/11/149 39/42/150 52/38/151 50/17/152
f 49/16/153 51/44/154 48/39/155 46/15/156
f 45/14/157 47/46/158 44/40/159 42/12/160
f 41/13/161 43/48/162 40/41/163 38/26/164
f 39/42/165 55/138/166 54/18/167 52/38/168
f 51/44/169 53/92/170 6/91/171 48/39/172
f 47/46/173 7/47/174 8/21/175 44/40/176
f 43/48/177 5/98/178 56/89/179 40/41/180
f 19/50/181 21/27/182 16/51/183 14/24/184
f 25/52/185 27/31/186 22/53/187 20/29/188
f 33/54/189 35/35/190 28/55/191 26/33/192
f 64/80/193 66/82/194 65/81/195 63/129/196
f 30/1/197 67/57/198 10/22/199
f 30/1/200 1/5/201 67/57/202
f 30/133/203 10/134/204 9/6/205 29/2/206
f 67/57/207 2/10/208 10/22/209
f 1/5/210 2/10/211 67/57/212
f 56/19/213 68/58/214 53/45/215
f 56/19/216 5/49/217 68/58/218
f 56/19/219 53/45/220 54/93/221 55/43/222
f 68/58/223 6/20/224 53/45/225
f 29/2/226 70/59/227 69/60/228 32/36/229
f 11/7/230 72/61/231 71/62/232 9/6/233
f 9/6/234 71/62/235 70/59/236 29/2/237
f 32/36/238 69/60/239 73/63/240 34/37/241
f 13/135/242 74/119/243 72/61/244 11/7/245
f 34/121/246 73/120/247 75/65/248 36/56/249
f 36/142/250 75/65/251 76/66/252 15/9/253
f 15/141/254 76/66/255 74/64/256 13/8/257
f 70/59/258 78/67/259 77/68/260 69/60/261
f 72/61/262 80/69/263 79/70/264 71/62/265
f 71/62/266 79/70/267 78/67/268 70/59/269
f 69/60/270 77/68/271 81/71/272 73/63/273
f 74/119/274 82/117/275 80/69/276 72/61/277
f 73/120/278 81/118/279 83/73/280 75/65/281
f 75/65/282 83/73/283 84/74/284 76/66/285
f 76/66/286 84/74/287 82/72/288 74/64/289
f 78/67/290 86/75/291 85/76/292 77/68/293
f 80/69/294 88/77/295 87/78/296 79/70/297
f 79/70/298 87/78/299 86/75/300 78/67/301
f 77/68/302 85/76/303 63/79/304 81/71/305
f 82/117/306 64/127/307 88/77/308 80/69/309
f 81/118/310 63/129/311 65/81/312 83/73/313
f 83/73/314 65/81/315 66/82/316 84/74/317
f 84/74/318 66/82/319 64/80/320 82/72/321
f 86/75/322 58/83/323 57/84/324 85/76/325
f 88/77/326 59/85/327 60/86/328 87/78/329
f 87/78/330 60/86/331 58/83/332 86/75/333
f 85/76/334 57/84/335 61/130/336 63/79/337
f 63/129/338 61/87/339 62/128/340 64/80/341
f 64/127/342 62/88/343 59/85/344 88/77/345
f 6/20/346 68/58/347 5/49/348
f 4/4/349 23/30/350 18/28/351 3/3/352
