# This file uses centimeters as units for non-parametric coordinates.

mtllib Rock3.mtl
g default
v 1.637150 0.351202 0.181328
v 0.888372 0.351202 0.537981
v -0.762037 0.351202 0.181328
v 0.901630 0.919085 0.205090
v 1.502255 0.679511 0.105688
v -0.627142 0.679511 0.105688
v 0.901630 1.134814 -0.375497
v 1.573039 0.779056 -0.375497
v -0.697926 0.779056 -0.375497
v 1.829123 0.351202 -0.396332
v -0.954010 0.351202 -0.396332
v 0.875113 0.000000 0.545970
v 1.555961 0.000000 0.239580
v -0.680848 0.000000 0.239580
v 1.798930 0.000000 -0.417167
v -0.923817 0.000000 -0.417167
v -0.762037 0.351202 -1.598495
v 0.888372 0.351202 -1.955148
v 1.637150 0.351202 -1.598495
v 0.901630 0.919085 -1.622257
v -0.627142 0.679511 -1.522855
v 1.502255 0.679511 -1.522855
v 0.875113 0.000000 -1.963137
v -0.680848 0.000000 -1.656747
v 1.555961 0.000000 -1.656747
v -0.059542 0.000000 -1.840466
v -0.105212 0.351202 -1.797691
v -0.011056 0.817532 -1.603502
v -0.056859 0.975009 -0.375497
v -0.011056 0.817532 0.186335
v -0.105212 0.351202 0.380523
v -0.059542 0.000000 0.423299
vt 0.220616 0.384966
vt 0.347131 0.388046
vt 0.326544 0.528576
vt 0.165770 0.432996
vt 0.528190 0.410101
vt 0.555731 0.520205
vt 0.202579 0.284413
vt 0.353057 0.257392
vt 0.546572 0.280270
vt 0.101762 0.311187
vt 0.775408 0.348860
vt 0.697975 0.461574
vt 0.649265 0.409230
vt 0.678004 0.312665
vt 0.311902 0.599329
vt 0.131679 0.503708
vt 0.556452 0.599113
vt 0.028128 0.336213
vt 0.845833 0.381770
vt 0.723410 0.535115
vt 0.894082 0.760775
vt 0.784357 0.731525
vt 0.784130 0.526089
vt 0.924615 0.546343
vt 0.841582 0.390685
vt 0.919367 0.367960
vt 0.579232 0.009272
vt 0.339001 0.000000
vt 0.170250 0.034485
vt 0.824297 0.077709
vt 0.736602 0.064773
vt 0.081789 0.037692
vt 1.000000 0.553907
vt 0.972770 0.760635
vt 0.998133 0.388162
vt 0.905836 0.084499
vt 0.000000 0.035671
vt 0.948197 0.901063
vt 0.868085 0.908270
vt 0.796916 0.871689
vn 0.356644 0.427158 0.830868
vn 0.356644 0.427158 0.830867
vn 0.356644 0.427158 0.830868
vn 0.356644 0.427158 0.830867
vn -0.105998 0.460232 0.881448
vn -0.105998 0.460232 0.881448
vn 0.424575 0.859825 0.283614
vn 0.424575 0.859825 0.283614
vn -0.134473 0.940325 0.312578
vn 0.851413 0.458667 0.254403
vn -0.851412 0.458668 0.254403
vn -0.851412 0.458668 0.254403
vn -0.851412 0.458668 0.254403
vn -0.851412 0.458668 0.254403
vn 0.420563 0.028966 0.906801
vn 0.420563 0.028966 0.906801
vn -0.143466 0.064752 0.987535
vn 0.935072 -0.130727 0.329472
vn -0.935072 -0.130727 0.329472
vn -0.935072 -0.130727 0.329472
vn -0.105998 0.460232 -0.881448
vn -0.105998 0.460233 -0.881448
vn -0.105998 0.460233 -0.881448
vn -0.105998 0.460233 -0.881448
vn 0.356644 0.427159 -0.830867
vn 0.356644 0.427159 -0.830867
vn -0.875891 0.467913 -0.117779
vn -0.875891 0.467913 -0.117779
vn -0.143466 0.064752 -0.987535
vn -0.143466 0.064752 -0.987535
vn 0.420563 0.028966 -0.906801
vn -0.975475 -0.135120 -0.173759
s 1
g polySurface6
usemtl initialShadingGroup
f 5/1/1 4/2/2 2/3/3 1/4/4
f 4/2/2 30/5/5 31/6/6 2/3/3
f 8/7/7 7/8/8 4/2/2 5/1/1
f 7/8/8 29/9/9 30/5/5 4/2/2
f 1/4/4 10/10/10 8/7/7 5/1/1
f 11/11/11 3/12/12 6/13/13 9/14/14
f 2/3/3 12/15/15 13/16/16 1/4/4
f 12/15/15 2/3/3 31/6/6 32/17/17
f 15/18/18 10/10/10 1/4/4 13/16/16
f 11/11/11 16/19/19 14/20/20 3/12/12
f 27/21/21 28/22/22 20/23/23 18/24/24
f 20/23/23 22/25/25 19/26/26 18/24/24
f 28/27/22 29/9/9 7/8/8 20/28/23
f 7/8/8 8/7/7 22/29/25 20/28/23
f 17/30/27 11/11/11 9/14/14 21/31/28
f 10/10/10 19/32/26 22/29/25 8/7/7
f 18/24/24 23/33/29 26/34/30 27/21/21
f 23/33/29 18/24/24 19/26/26 25/35/31
f 16/19/19 11/11/11 17/30/27 24/36/32
f 10/10/10 15/18/18 25/37/31 19/32/26
f 27/21/21 26/34/30 24/38/32 17/39/27
f 21/40/28 28/22/22 27/21/21 17/39/27
f 9/14/14 29/9/9 28/27/22 21/31/28
f 30/5/5 29/9/9 9/14/14 6/13/13
f 31/6/6 30/5/5 6/13/13 3/12/12
f 32/17/17 31/6/6 3/12/12 14/20/20
g default
v 1.637150 0.351202 0.181328
v 0.888372 0.351202 0.537981
v -0.762037 0.351202 0.181328
v 0.901630 0.919085 0.205090
v 1.502255 0.679511 0.105688
v -0.627142 0.679511 0.105688
v 0.901630 1.134814 -0.375497
v 1.573039 0.779056 -0.375497
v -0.697926 0.779056 -0.375497
v 1.829123 0.351202 -0.396332
v -0.954010 0.351202 -0.396332
v 0.875113 0.000000 0.545970
v 1.555961 0.000000 0.239580
v -0.680848 0.000000 0.239580
v 1.798930 0.000000 -0.417167
v -0.923817 0.000000 -0.417167
v -0.762037 0.351202 -1.598495
v 0.888372 0.351202 -1.955148
v 1.637150 0.351202 -1.598495
v 0.901630 0.919085 -1.622257
v -0.627142 0.679511 -1.522855
v 1.502255 0.679511 -1.522855
v 0.875113 0.000000 -1.963137
v -0.680848 0.000000 -1.656747
v 1.555961 0.000000 -1.656747
v -0.059542 0.000000 -1.840466
v -0.105212 0.351202 -1.797691
v -0.011056 0.817532 -1.603502
v -0.056859 0.975009 -0.375497
v -0.011056 0.817532 0.186335
v -0.105212 0.351202 0.380523
v -0.059542 0.000000 0.423299
vt 0.220616 0.384966
vt 0.347131 0.388046
vt 0.326544 0.528576
vt 0.165770 0.432996
vt 0.528190 0.410101
vt 0.555731 0.520205
vt 0.202579 0.284413
vt 0.353057 0.257392
vt 0.546572 0.280270
vt 0.101762 0.311187
vt 0.775408 0.348860
vt 0.697975 0.461574
vt 0.649265 0.409230
vt 0.678004 0.312665
vt 0.311902 0.599329
vt 0.131679 0.503708
vt 0.556452 0.599113
vt 0.028128 0.336213
vt 0.845833 0.381770
vt 0.723410 0.535115
vt 0.894082 0.760775
vt 0.784357 0.731525
vt 0.784130 0.526089
vt 0.924615 0.546343
vt 0.841582 0.390685
vt 0.919367 0.367960
vt 0.579232 0.009272
vt 0.339001 0.000000
vt 0.170250 0.034485
vt 0.824297 0.077709
vt 0.736602 0.064773
vt 0.081789 0.037692
vt 1.000000 0.553907
vt 0.972770 0.760635
vt 0.998133 0.388162
vt 0.905836 0.084499
vt 0.000000 0.035671
vt 0.948197 0.901063
vt 0.868085 0.908270
vt 0.796916 0.871689
vn 0.356644 0.427158 0.830868
vn 0.356644 0.427158 0.830867
vn 0.356644 0.427158 0.830868
vn 0.356644 0.427158 0.830867
vn -0.105998 0.460232 0.881448
vn -0.105998 0.460232 0.881448
vn 0.424575 0.859825 0.283614
vn 0.424575 0.859825 0.283614
vn -0.134473 0.940325 0.312578
vn 0.851413 0.458667 0.254403
vn -0.851412 0.458668 0.254403
vn -0.851412 0.458668 0.254403
vn -0.851412 0.458668 0.254403
vn -0.851412 0.458668 0.254403
vn 0.420563 0.028966 0.906801
vn 0.420563 0.028966 0.906801
vn -0.143466 0.064752 0.987535
vn 0.935072 -0.130727 0.329472
vn -0.935072 -0.130727 0.329472
vn -0.935072 -0.130727 0.329472
vn -0.105998 0.460232 -0.881448
vn -0.105998 0.460233 -0.881448
vn -0.105998 0.460233 -0.881448
vn -0.105998 0.460233 -0.881448
vn 0.356644 0.427159 -0.830867
vn 0.356644 0.427159 -0.830867
vn -0.875891 0.467913 -0.117779
vn -0.875891 0.467913 -0.117779
vn -0.143466 0.064752 -0.987535
vn -0.143466 0.064752 -0.987535
vn 0.420563 0.028966 -0.906801
vn -0.975475 -0.135120 -0.173759
s 1
g polySurface6
f 37/41/33 36/42/34 34/43/35 33/44/36
f 36/42/34 62/45/37 63/46/38 34/43/35
f 40/47/39 39/48/40 36/42/34 37/41/33
f 39/48/40 61/49/41 62/45/37 36/42/34
f 33/44/36 42/50/42 40/47/39 37/41/33
f 43/51/43 35/52/44 38/53/45 41/54/46
f 34/43/35 44/55/47 45/56/48 33/44/36
f 44/55/47 34/43/35 63/46/38 64/57/49
f 47/58/50 42/50/42 33/44/36 45/56/48
f 43/51/43 48/59/51 46/60/52 35/52/44
f 59/61/53 60/62/54 52/63/55 50/64/56
f 52/63/55 54/65/57 51/66/58 50/64/56
f 60/67/54 61/49/41 39/48/40 52/68/55
f 39/48/40 40/47/39 54/69/57 52/68/55
f 49/70/59 43/51/43 41/54/46 53/71/60
f 42/50/42 51/72/58 54/69/57 40/47/39
f 50/64/56 55/73/61 58/74/62 59/61/53
f 55/73/61 50/64/56 51/66/58 57/75/63
f 48/59/51 43/51/43 49/70/59 56/76/64
f 42/50/42 47/58/50 57/77/63 51/72/58
f 59/61/53 58/74/62 56/78/64 49/79/59
f 53/80/60 60/62/54 59/61/53 49/79/59
f 41/54/46 61/49/41 60/67/54 53/71/60
f 62/45/37 61/49/41 41/54/46 38/53/45
f 63/46/38 62/45/37 38/53/45 35/52/44
f 64/57/49 63/46/38 35/52/44 46/60/52
