# This file uses centimeters as units for non-parametric coordinates.

g default
v -0.415086 7.073695 0.530396
v -0.503056 7.062558 0.591807
v -0.522982 7.066130 0.697706
v -0.463198 7.082577 0.785985
v -0.358736 7.102595 0.804840
v -0.270800 7.114823 0.743124
v -0.250911 7.112462 0.636887
v -0.310732 7.097226 0.548270
v -0.452757 7.145598 0.407701
v -0.615288 7.124505 0.521319
v -0.652072 7.129996 0.717303
v -0.541558 7.158797 0.880865
v -0.348479 7.193868 0.916241
v -0.185931 7.214405 0.802778
v -0.149121 7.208046 0.607037
v -0.259602 7.178154 0.443779
v -0.488999 7.251935 0.323638
v -0.701336 7.223684 0.472279
v -0.749390 7.230670 0.728398
v -0.605006 7.268629 0.942011
v -0.352627 7.310836 0.989240
v -0.140294 7.339230 0.840559
v -0.092262 7.332958 0.584241
v -0.236683 7.296214 0.370288
v -0.518622 7.387236 0.288010
v -0.748517 7.358716 0.448323
v -0.800582 7.367983 0.725068
v -0.644339 7.410258 0.955949
v -0.371328 7.461291 1.005576
v -0.141486 7.491523 0.844784
v -0.089454 7.483356 0.567732
v -0.245709 7.441462 0.336745
v -0.537132 7.531406 0.306100
v -0.749444 7.502359 0.454965
v -0.797464 7.508210 0.711401
v -0.653039 7.544809 0.925393
v -0.400750 7.589999 0.971789
v -0.188365 7.616655 0.823593
v -0.140280 7.608648 0.567760
v -0.284652 7.570334 0.354246
v -0.541129 7.643454 0.380475
v -0.703688 7.623241 0.493846
v -0.740522 7.630404 0.689364
v -0.630078 7.661507 0.852284
v -0.437082 7.699285 0.886902
v -0.274620 7.722667 0.772645
v -0.237893 7.719017 0.576147
v -0.348444 7.691427 0.412246
v -0.531236 7.746668 0.488540
v -0.619206 7.735532 0.549952
v -0.639104 7.738225 0.656095
v -0.579270 7.752999 0.744842
v -0.474738 7.770714 0.764340
v -0.386719 7.780236 0.703380
v -0.366744 7.775028 0.597938
v -0.426482 7.757084 0.510077
v -0.381864 7.051799 0.671750
v -0.507430 7.775192 0.627850
v -1.133874 7.424996 -0.234822
v -1.221844 7.388001 -0.184555
v -1.241769 7.344666 -0.087863
v -1.181985 7.320639 -0.001339
v -1.077524 7.330333 0.024395
v -0.989587 7.368442 -0.025666
v -0.969698 7.413013 -0.122130
v -1.029519 7.438276 -0.208425
v -1.171544 7.543509 -0.313428
v -1.334076 7.474625 -0.220644
v -1.370859 7.393419 -0.042190
v -1.260345 7.347401 0.117386
v -1.067266 7.363355 0.164575
v -0.904718 7.431670 0.071685
v -0.867908 7.511991 -0.106931
v -0.978389 7.556895 -0.266713
v -1.207787 7.675971 -0.342200
v -1.420123 7.585265 -0.221102
v -1.468177 7.478972 0.012024
v -1.323794 7.419181 0.220582
v -1.071414 7.436336 0.281555
v -0.859082 7.527187 0.160484
v -0.811050 7.634210 -0.072506
v -0.955470 7.695240 -0.280835
v -1.237409 7.813161 -0.314735
v -1.467304 7.717084 -0.183271
v -1.519369 7.603775 0.069384
v -1.363126 7.540271 0.295349
v -1.090115 7.564300 0.362356
v -0.860273 7.662126 0.231215
v -0.808241 7.776558 -0.021233
v -0.964496 7.840449 -0.247127
v -1.255919 7.934710 -0.235121
v -1.468232 7.843190 -0.114172
v -1.516251 7.735738 0.118739
v -1.371826 7.674560 0.327040
v -1.119537 7.694759 0.388577
v -0.907152 7.783837 0.267178
v -0.859067 7.889087 0.033860
v -1.003439 7.948515 -0.174765
v -1.259917 8.002666 -0.119068
v -1.422475 7.934682 -0.026118
v -1.459309 7.855183 0.152651
v -1.348866 7.811514 0.312661
v -1.155869 7.830233 0.360361
v -0.993407 7.901453 0.268008
v -0.956680 7.984538 0.089902
v -1.067231 8.031794 -0.069445
v -1.250023 8.047880 0.023364
v -1.337993 8.010886 0.073631
v -1.357892 7.966653 0.170157
v -1.298057 7.940918 0.256366
v -1.193525 7.948261 0.281666
v -1.105506 7.983606 0.231094
v -1.085531 8.025272 0.134094
v -1.145269 8.047771 0.047287
v -1.100651 7.343201 -0.117476
v -1.226217 8.012273 0.161034
v -0.695629 8.173349 -0.234822
v -0.783599 8.136354 -0.184555
v -0.803524 8.093019 -0.087863
v -0.743740 8.068992 -0.001339
v -0.639279 8.078686 0.024395
v -0.551342 8.116795 -0.025666
v -0.531453 8.161366 -0.122130
v -0.591274 8.186629 -0.208425
v -0.733299 8.291862 -0.313428
v -0.895831 8.222979 -0.220644
v -0.932614 8.141772 -0.042190
v -0.822100 8.095754 0.117386
v -0.629022 8.111708 0.164575
v -0.466473 8.180023 0.071685
v -0.429663 8.260344 -0.106931
v -0.540144 8.305248 -0.266713
v -0.769542 8.424324 -0.342200
v -0.981878 8.333617 -0.221102
v -1.029932 8.227324 0.012024
v -0.885549 8.167534 0.220582
v -0.633169 8.184689 0.281555
v -0.420837 8.275540 0.160484
v -0.372805 8.382563 -0.072506
v -0.517225 8.443593 -0.280835
v -0.799164 8.561515 -0.314735
v -1.029059 8.465438 -0.183271
v -1.081124 8.352128 0.069384
v -0.924881 8.288624 0.295349
v -0.651870 8.312653 0.362356
v -0.422028 8.410479 0.231215
v -0.369996 8.524911 -0.021233
v -0.526251 8.588802 -0.247127
v -0.817674 8.683063 -0.235121
v -1.029987 8.591543 -0.114172
v -1.078006 8.484091 0.118739
v -0.933581 8.422913 0.327040
v -0.681292 8.443112 0.388577
v -0.468907 8.532190 0.267178
v -0.420822 8.637440 0.033860
v -0.565194 8.696869 -0.174765
v -0.821672 8.751019 -0.119068
v -0.984230 8.683035 -0.026118
v -1.021064 8.603536 0.152651
v -0.910621 8.559867 0.312661
v -0.717624 8.578586 0.360361
v -0.555162 8.649806 0.268008
v -0.518435 8.732891 0.089902
v -0.628986 8.780147 -0.069445
v -0.811778 8.796233 0.023364
v -0.899748 8.759239 0.073631
v -0.919647 8.715006 0.170157
v -0.859812 8.689271 0.256366
v -0.755280 8.696614 0.281666
v -0.667261 8.731959 0.231094
v -0.647286 8.773625 0.134094
v -0.707024 8.796124 0.047287
v -0.662406 8.091554 -0.117476
v -0.787972 8.760626 0.161034
vt 0.279223 0.310842
vt 0.313408 0.275614
vt 0.374701 0.302928
vt 0.303091 0.372974
vt 0.312222 0.226437
vt 0.373469 0.202220
vt 0.276438 0.193193
vt 0.301460 0.130087
vt 0.227251 0.193509
vt 0.200385 0.134665
vt 0.191910 0.229084
vt 0.131440 0.205910
vt 0.193643 0.279054
vt 0.133722 0.305064
vt 0.229760 0.313094
vt 0.205215 0.372219
vt 0.438346 0.325923
vt 0.331024 0.432197
vt 0.433291 0.173735
vt 0.325001 0.069668
vt 0.177586 0.074893
vt 0.071644 0.178233
vt 0.072313 0.328928
vt 0.179408 0.438213
vt 0.505731 0.155658
vt 0.503193 0.358917
vt 0.643383 0.008071
vt 0.850798 0.000000
vt 0.998610 0.147422
vt 1.000000 0.353249
vt 0.855862 0.498612
vt 0.653002 0.498543
vt 0.568133 0.179668
vt 0.574991 0.328536
vt 0.674282 0.071069
vt 0.824154 0.069485
vt 0.934968 0.171746
vt 0.938527 0.324627
vt 0.832182 0.435177
vt 0.677004 0.439584
vt 0.629877 0.200806
vt 0.630083 0.302977
vt 0.702188 0.129982
vt 0.802313 0.131227
vt 0.873381 0.201210
vt 0.873348 0.301657
vt 0.802197 0.372030
vt 0.704443 0.370276
vt 0.692973 0.229525
vt 0.694362 0.277973
vt 0.727054 0.194248
vt 0.776716 0.192875
vt 0.811816 0.227649
vt 0.811560 0.276057
vt 0.778473 0.311318
vt 0.729438 0.311788
vt 0.253193 0.251509
vt 0.753148 0.251200
vt 0.154120 0.502438
vt 0.361527 0.502319
vt 0.005193 0.361839
vt 0.000000 0.154240
vt 0.144830 0.000000
vt 0.355246 0.002711
vt 0.501021 0.147700
vt 0.501005 0.350676
vt 0.279223 0.310842
vt 0.313408 0.275614
vt 0.374701 0.302928
vt 0.303091 0.372974
vt 0.312222 0.226437
vt 0.373469 0.202220
vt 0.276438 0.193193
vt 0.301460 0.130087
vt 0.227251 0.193509
vt 0.200385 0.134665
vt 0.191910 0.229084
vt 0.131440 0.205910
vt 0.193643 0.279054
vt 0.133722 0.305064
vt 0.229760 0.313094
vt 0.205215 0.372219
vt 0.438346 0.325923
vt 0.331024 0.432197
vt 0.433291 0.173735
vt 0.325001 0.069668
vt 0.177586 0.074893
vt 0.071644 0.178233
vt 0.072313 0.328928
vt 0.179408 0.438213
vt 0.501005 0.350676
vt 0.361527 0.502319
vt 0.501021 0.147700
vt 0.355246 0.002711
vt 0.144830 0.000000
vt 0.000000 0.154240
vt 0.005193 0.361839
vt 0.154120 0.502438
vt 0.503193 0.358917
vt 0.505731 0.155658
vt 0.568133 0.179668
vt 0.574991 0.328536
vt 0.643383 0.008071
vt 0.674282 0.071069
vt 0.850798 0.000000
vt 0.824154 0.069485
vt 0.998610 0.147422
vt 0.934968 0.171746
vt 1.000000 0.353249
vt 0.938527 0.324627
vt 0.855862 0.498612
vt 0.832182 0.435177
vt 0.653002 0.498543
vt 0.677004 0.439584
vt 0.629877 0.200806
vt 0.630083 0.302977
vt 0.702188 0.129982
vt 0.802313 0.131227
vt 0.873381 0.201210
vt 0.873348 0.301657
vt 0.802197 0.372030
vt 0.704443 0.370276
vt 0.692973 0.229525
vt 0.694362 0.277973
vt 0.727054 0.194248
vt 0.776716 0.192875
vt 0.811816 0.227649
vt 0.811560 0.276057
vt 0.778473 0.311318
vt 0.729438 0.311788
vt 0.253193 0.251509
vt 0.753148 0.251200
vt 0.279223 0.310842
vt 0.313408 0.275614
vt 0.374701 0.302928
vt 0.303091 0.372974
vt 0.312222 0.226437
vt 0.373469 0.202220
vt 0.276438 0.193193
vt 0.301460 0.130087
vt 0.227251 0.193509
vt 0.200385 0.134665
vt 0.191910 0.229084
vt 0.131440 0.205910
vt 0.193643 0.279054
vt 0.133722 0.305064
vt 0.229760 0.313094
vt 0.205215 0.372219
vt 0.438346 0.325923
vt 0.331024 0.432197
vt 0.433291 0.173735
vt 0.325001 0.069668
vt 0.177586 0.074893
vt 0.071644 0.178233
vt 0.072313 0.328928
vt 0.179408 0.438213
vt 0.501005 0.350676
vt 0.361527 0.502319
vt 0.501021 0.147700
vt 0.355246 0.002711
vt 0.144830 0.000000
vt 0.000000 0.154240
vt 0.005193 0.361839
vt 0.154120 0.502438
vt 0.503193 0.358917
vt 0.505731 0.155658
vt 0.568133 0.179668
vt 0.574991 0.328536
vt 0.643383 0.008071
vt 0.674282 0.071069
vt 0.850798 0.000000
vt 0.824154 0.069485
vt 0.998610 0.147422
vt 0.934968 0.171746
vt 1.000000 0.353249
vt 0.938527 0.324627
vt 0.855862 0.498612
vt 0.832182 0.435177
vt 0.653002 0.498543
vt 0.677004 0.439584
vt 0.629877 0.200806
vt 0.630083 0.302977
vt 0.702188 0.129982
vt 0.802313 0.131227
vt 0.873381 0.201210
vt 0.873348 0.301657
vt 0.802197 0.372030
vt 0.704443 0.370276
vt 0.692973 0.229525
vt 0.694362 0.277973
vt 0.727054 0.194248
vt 0.776716 0.192875
vt 0.811816 0.227649
vt 0.811560 0.276057
vt 0.778473 0.311318
vt 0.729438 0.311788
vt 0.253193 0.251509
vt 0.753148 0.251200
vn 0.042286 -0.893559 -0.446950
vn -0.284952 -0.930890 -0.228576
vn -0.505326 -0.780908 -0.367189
vn -0.038798 -0.718439 -0.694507
vn -0.357984 -0.919320 0.163397
vn -0.610219 -0.767137 0.197823
vn -0.134666 -0.862640 0.487563
vn -0.293564 -0.688146 0.663532
vn 0.248748 -0.795884 0.551991
vn 0.260082 -0.592100 0.762742
vn 0.563705 -0.759277 0.325170
vn 0.727030 -0.528802 0.437946
vn 0.630516 -0.774318 -0.053674
vn 0.833530 -0.538967 -0.121414
vn 0.419664 -0.827821 -0.372283
vn 0.516301 -0.619382 -0.591438
vn -0.712425 -0.510647 -0.481342
vn -0.126444 -0.432500 -0.892724
vn -0.843614 -0.488522 0.222851
vn -0.448886 -0.379437 0.809030
vn 0.243725 -0.251303 0.936720
vn 0.830288 -0.174015 0.529472
vn 0.964497 -0.196498 -0.176448
vn 0.568508 -0.303304 -0.764726
vn -0.823220 -0.175806 -0.539815
vn -0.201259 -0.095648 -0.974857
vn -0.965126 -0.154524 0.211317
vn -0.540802 -0.042599 0.840071
vn 0.202634 0.094522 0.974682
vn 0.825366 0.175601 0.536596
vn 0.964381 0.154709 -0.214559
vn 0.540041 0.043649 -0.840506
vn -0.828237 0.189443 -0.527385
vn -0.246116 0.268926 -0.931185
vn -0.962742 0.205063 0.176289
vn -0.566453 0.307758 0.764471
vn 0.125314 0.437416 0.890485
vn 0.706344 0.517148 0.483359
vn 0.838525 0.499019 -0.218761
vn 0.442343 0.393727 -0.805799
vn -0.730748 0.523964 -0.437572
vn -0.263789 0.581063 -0.769922
vn -0.836712 0.533412 0.124032
vn -0.518545 0.613206 0.595894
vn 0.041517 0.713260 0.699669
vn 0.517078 0.771824 0.370025
vn 0.626580 0.752558 -0.202618
vn 0.300063 0.676137 -0.672905
vn -0.581901 0.736230 -0.345479
vn -0.256006 0.789225 -0.558198
vn -0.653127 0.755238 0.055139
vn -0.427839 0.820723 0.378639
vn -0.049474 0.896893 0.439472
vn 0.252484 0.943914 0.212788
vn 0.303647 0.940543 -0.152238
vn 0.103884 0.879329 -0.464745
vn 0.181069 -0.981418 0.063503
vn -0.144267 0.987451 -0.064242
vn 0.042286 -0.606187 -0.794197
vn -0.284952 -0.735696 -0.614454
vn -0.505327 -0.540053 -0.673044
vn -0.038798 -0.340080 -0.939596
vn -0.357984 -0.897581 -0.257286
vn -0.610219 -0.776015 -0.159477
vn -0.134666 -0.989145 0.058804
vn -0.293564 -0.909750 0.293555
vn 0.248747 -0.957499 0.146015
vn 0.260082 -0.867083 0.424881
vn 0.563704 -0.824927 -0.041632
vn 0.727030 -0.667472 0.160960
vn 0.630517 -0.671929 -0.388536
vn 0.833531 -0.430755 -0.345942
vn 0.419664 -0.579954 -0.698238
vn 0.516301 -0.296404 -0.803479
vn -0.712425 -0.247123 -0.656796
vn -0.126444 0.003879 -0.991966
vn -0.843614 -0.536753 -0.014541
vn -0.448885 -0.696405 0.559930
vn 0.243725 -0.637433 0.730943
vn 0.830288 -0.389018 0.399107
vn 0.964498 -0.098950 -0.244854
vn 0.568509 0.063671 -0.820210
vn -0.823221 0.079342 -0.562150
vn -0.201259 0.342550 -0.917690
vn -0.965126 -0.231676 0.121897
vn -0.540801 -0.407488 0.735859
vn 0.202633 -0.343485 0.917038
vn 0.825366 -0.078111 0.559169
vn 0.964381 0.233267 -0.124727
vn 0.540040 0.408622 -0.735788
vn -0.828237 0.401958 -0.390452
vn -0.246115 0.650830 -0.718226
vn -0.962742 0.106712 0.248478
vn -0.566453 -0.059559 0.821939
vn 0.125314 0.001520 0.992116
vn 0.706345 0.252077 0.661464
vn 0.838525 0.544385 0.022828
vn 0.442342 0.707820 -0.550749
vn -0.730748 0.662963 -0.162751
vn -0.263789 0.860325 -0.436183
vn -0.836712 0.424615 0.345855
vn -0.518545 0.288898 0.804767
vn 0.041518 0.333160 0.941956
vn 0.517078 0.530647 0.671597
vn 0.626581 0.765027 0.148764
vn 0.300063 0.903083 -0.307251
vn -0.581900 0.813153 0.013261
vn -0.256005 0.954245 -0.154522
vn -0.653127 0.654147 0.381467
vn -0.427838 0.570782 0.700830
vn -0.049474 0.612463 0.788949
vn 0.252484 0.754334 0.605997
vn 0.303648 0.911740 0.276636
vn 0.103883 0.994107 -0.030976
vn 0.181068 -0.909455 -0.374307
vn -0.144266 0.915199 0.376294
vn 0.042286 -0.606184 -0.794199
vn -0.284953 -0.735695 -0.614454
vn -0.505325 -0.540052 -0.673045
vn -0.038798 -0.340080 -0.939596
vn -0.357986 -0.897580 -0.257287
vn -0.610218 -0.776016 -0.159479
vn -0.134665 -0.989145 0.058802
vn -0.293563 -0.909750 0.293556
vn 0.248749 -0.957498 0.146017
vn 0.260083 -0.867082 0.424884
vn 0.563705 -0.824926 -0.041634
vn 0.727030 -0.667472 0.160961
vn 0.630517 -0.671927 -0.388539
vn 0.833530 -0.430755 -0.345944
vn 0.419663 -0.579952 -0.698239
vn 0.516301 -0.296404 -0.803478
vn -0.712425 -0.247123 -0.656796
vn -0.126444 0.003880 -0.991966
vn -0.843614 -0.536753 -0.014542
vn -0.448886 -0.696405 0.559929
vn 0.243726 -0.637432 0.730943
vn 0.830288 -0.389017 0.399108
vn 0.964498 -0.098950 -0.244854
vn 0.568509 0.063671 -0.820209
vn -0.823221 0.079342 -0.562150
vn -0.201258 0.342550 -0.917690
vn -0.965126 -0.231676 0.121895
vn -0.540802 -0.407489 0.735857
vn 0.202634 -0.343485 0.917037
vn 0.825366 -0.078111 0.559169
vn 0.964380 0.233267 -0.124729
vn 0.540040 0.408622 -0.735789
vn -0.828237 0.401959 -0.390452
vn -0.246116 0.650830 -0.718226
vn -0.962742 0.106713 0.248478
vn -0.566454 -0.059559 0.821939
vn 0.125314 0.001520 0.992116
vn 0.706345 0.252078 0.661464
vn 0.838525 0.544385 0.022826
vn 0.442342 0.707820 -0.550749
vn -0.730748 0.662962 -0.162753
vn -0.263790 0.860324 -0.436185
vn -0.836712 0.424615 0.345853
vn -0.518545 0.288897 0.804767
vn 0.041517 0.333159 0.941956
vn 0.517079 0.530648 0.671596
vn 0.626581 0.765026 0.148765
vn 0.300063 0.903084 -0.307249
vn -0.581900 0.813152 0.013260
vn -0.256005 0.954246 -0.154520
vn -0.653127 0.654146 0.381467
vn -0.427839 0.570780 0.700831
vn -0.049474 0.612464 0.788949
vn 0.252486 0.754334 0.605996
vn 0.303648 0.911739 0.276642
vn 0.103883 0.994107 -0.030968
vn 0.181068 -0.909454 -0.374309
vn -0.144266 0.915198 0.376298
s 1
g pSphere6
f 1/1/1 2/2/2 10/3/3 9/4/4
f 2/2/2 3/5/5 11/6/6 10/3/3
f 3/5/5 4/7/7 12/8/8 11/6/6
f 4/7/7 5/9/9 13/10/10 12/8/8
f 5/9/9 6/11/11 14/12/12 13/10/10
f 6/11/11 7/13/13 15/14/14 14/12/12
f 7/13/13 8/15/15 16/16/16 15/14/14
f 8/15/15 1/1/1 9/4/4 16/16/16
f 9/4/4 10/3/3 18/17/17 17/18/18
f 10/3/3 11/6/6 19/19/19 18/17/17
f 11/6/6 12/8/8 20/20/20 19/19/19
f 12/8/8 13/10/10 21/21/21 20/20/20
f 13/10/10 14/12/12 22/22/22 21/21/21
f 14/12/12 15/14/14 23/23/23 22/22/22
f 15/14/14 16/16/16 24/24/24 23/23/23
f 16/16/16 9/4/4 17/18/18 24/24/24
f 17/18/18 18/17/17 26/66/25 25/60/26
f 18/17/17 19/19/19 27/65/27 26/66/25
f 19/19/19 20/20/20 28/64/28 27/65/27
f 20/20/20 21/21/21 29/63/29 28/64/28
f 21/21/21 22/22/22 30/62/30 29/63/29
f 22/22/22 23/23/23 31/61/31 30/62/30
f 23/23/23 24/24/24 32/59/32 31/61/31
f 24/24/24 17/18/18 25/60/26 32/59/32
f 25/26/26 26/25/25 34/33/33 33/34/34
f 26/25/25 27/27/27 35/35/35 34/33/33
f 27/27/27 28/28/28 36/36/36 35/35/35
f 28/28/28 29/29/29 37/37/37 36/36/36
f 29/29/29 30/30/30 38/38/38 37/37/37
f 30/30/30 31/31/31 39/39/39 38/38/38
f 31/31/31 32/32/32 40/40/40 39/39/39
f 32/32/32 25/26/26 33/34/34 40/40/40
f 33/34/34 34/33/33 42/41/41 41/42/42
f 34/33/33 35/35/35 43/43/43 42/41/41
f 35/35/35 36/36/36 44/44/44 43/43/43
f 36/36/36 37/37/37 45/45/45 44/44/44
f 37/37/37 38/38/38 46/46/46 45/45/45
f 38/38/38 39/39/39 47/47/47 46/46/46
f 39/39/39 40/40/40 48/48/48 47/47/47
f 40/40/40 33/34/34 41/42/42 48/48/48
f 41/42/42 42/41/41 50/49/49 49/50/50
f 42/41/41 43/43/43 51/51/51 50/49/49
f 43/43/43 44/44/44 52/52/52 51/51/51
f 44/44/44 45/45/45 53/53/53 52/52/52
f 45/45/45 46/46/46 54/54/54 53/53/53
f 46/46/46 47/47/47 55/55/55 54/54/54
f 47/47/47 48/48/48 56/56/56 55/55/55
f 48/48/48 41/42/42 49/50/50 56/56/56
f 2/2/2 1/1/1 57/57/57
f 3/5/5 2/2/2 57/57/57
f 4/7/7 3/5/5 57/57/57
f 5/9/9 4/7/7 57/57/57
f 6/11/11 5/9/9 57/57/57
f 7/13/13 6/11/11 57/57/57
f 8/15/15 7/13/13 57/57/57
f 1/1/1 8/15/15 57/57/57
f 49/50/50 50/49/49 58/58/58
f 50/49/49 51/51/51 58/58/58
f 51/51/51 52/52/52 58/58/58
f 52/52/52 53/53/53 58/58/58
f 53/53/53 54/54/54 58/58/58
f 54/54/54 55/55/55 58/58/58
f 55/55/55 56/56/56 58/58/58
f 56/56/56 49/50/50 58/58/58
s 2
f 59/67/59 60/68/60 68/69/61 67/70/62
f 60/68/60 61/71/63 69/72/64 68/69/61
f 61/71/63 62/73/65 70/74/66 69/72/64
f 62/73/65 63/75/67 71/76/68 70/74/66
f 63/75/67 64/77/69 72/78/70 71/76/68
f 64/77/69 65/79/71 73/80/72 72/78/70
f 65/79/71 66/81/73 74/82/74 73/80/72
f 66/81/73 59/67/59 67/70/62 74/82/74
f 67/70/62 68/69/61 76/83/75 75/84/76
f 68/69/61 69/72/64 77/85/77 76/83/75
f 69/72/64 70/74/66 78/86/78 77/85/77
f 70/74/66 71/76/68 79/87/79 78/86/78
f 71/76/68 72/78/70 80/88/80 79/87/79
f 72/78/70 73/80/72 81/89/81 80/88/80
f 73/80/72 74/82/74 82/90/82 81/89/81
f 74/82/74 67/70/62 75/84/76 82/90/82
f 75/84/76 76/83/75 84/91/83 83/92/84
f 76/83/75 77/85/77 85/93/85 84/91/83
f 77/85/77 78/86/78 86/94/86 85/93/85
f 78/86/78 79/87/79 87/95/87 86/94/86
f 79/87/79 80/88/80 88/96/88 87/95/87
f 80/88/80 81/89/81 89/97/89 88/96/88
f 81/89/81 82/90/82 90/98/90 89/97/89
f 82/90/82 75/84/76 83/92/84 90/98/90
f 83/99/84 84/100/83 92/101/91 91/102/92
f 84/100/83 85/103/85 93/104/93 92/101/91
f 85/103/85 86/105/86 94/106/94 93/104/93
f 86/105/86 87/107/87 95/108/95 94/106/94
f 87/107/87 88/109/88 96/110/96 95/108/95
f 88/109/88 89/111/89 97/112/97 96/110/96
f 89/111/89 90/113/90 98/114/98 97/112/97
f 90/113/90 83/99/84 91/102/92 98/114/98
f 91/102/92 92/101/91 100/115/99 99/116/100
f 92/101/91 93/104/93 101/117/101 100/115/99
f 93/104/93 94/106/94 102/118/102 101/117/101
f 94/106/94 95/108/95 103/119/103 102/118/102
f 95/108/95 96/110/96 104/120/104 103/119/103
f 96/110/96 97/112/97 105/121/105 104/120/104
f 97/112/97 98/114/98 106/122/106 105/121/105
f 98/114/98 91/102/92 99/116/100 106/122/106
f 99/116/100 100/115/99 108/123/107 107/124/108
f 100/115/99 101/117/101 109/125/109 108/123/107
f 101/117/101 102/118/102 110/126/110 109/125/109
f 102/118/102 103/119/103 111/127/111 110/126/110
f 103/119/103 104/120/104 112/128/112 111/127/111
f 104/120/104 105/121/105 113/129/113 112/128/112
f 105/121/105 106/122/106 114/130/114 113/129/113
f 106/122/106 99/116/100 107/124/108 114/130/114
f 60/68/60 59/67/59 115/131/115
f 61/71/63 60/68/60 115/131/115
f 62/73/65 61/71/63 115/131/115
f 63/75/67 62/73/65 115/131/115
f 64/77/69 63/75/67 115/131/115
f 65/79/71 64/77/69 115/131/115
f 66/81/73 65/79/71 115/131/115
f 59/67/59 66/81/73 115/131/115
f 107/124/108 108/123/107 116/132/116
f 108/123/107 109/125/109 116/132/116
f 109/125/109 110/126/110 116/132/116
f 110/126/110 111/127/111 116/132/116
f 111/127/111 112/128/112 116/132/116
f 112/128/112 113/129/113 116/132/116
f 113/129/113 114/130/114 116/132/116
f 114/130/114 107/124/108 116/132/116
s 3
f 117/133/117 118/134/118 126/135/119 125/136/120
f 118/134/118 119/137/121 127/138/122 126/135/119
f 119/137/121 120/139/123 128/140/124 127/138/122
f 120/139/123 121/141/125 129/142/126 128/140/124
f 121/141/125 122/143/127 130/144/128 129/142/126
f 122/143/127 123/145/129 131/146/130 130/144/128
f 123/145/129 124/147/131 132/148/132 131/146/130
f 124/147/131 117/133/117 125/136/120 132/148/132
f 125/136/120 126/135/119 134/149/133 133/150/134
f 126/135/119 127/138/122 135/151/135 134/149/133
f 127/138/122 128/140/124 136/152/136 135/151/135
f 128/140/124 129/142/126 137/153/137 136/152/136
f 129/142/126 130/144/128 138/154/138 137/153/137
f 130/144/128 131/146/130 139/155/139 138/154/138
f 131/146/130 132/148/132 140/156/140 139/155/139
f 132/148/132 125/136/120 133/150/134 140/156/140
f 133/150/134 134/149/133 142/157/141 141/158/142
f 134/149/133 135/151/135 143/159/143 142/157/141
f 135/151/135 136/152/136 144/160/144 143/159/143
f 136/152/136 137/153/137 145/161/145 144/160/144
f 137/153/137 138/154/138 146/162/146 145/161/145
f 138/154/138 139/155/139 147/163/147 146/162/146
f 139/155/139 140/156/140 148/164/148 147/163/147
f 140/156/140 133/150/134 141/158/142 148/164/148
f 141/165/142 142/166/141 150/167/149 149/168/150
f 142/166/141 143/169/143 151/170/151 150/167/149
f 143/169/143 144/171/144 152/172/152 151/170/151
f 144/171/144 145/173/145 153/174/153 152/172/152
f 145/173/145 146/175/146 154/176/154 153/174/153
f 146/175/146 147/177/147 155/178/155 154/176/154
f 147/177/147 148/179/148 156/180/156 155/178/155
f 148/179/148 141/165/142 149/168/150 156/180/156
f 149/168/150 150/167/149 158/181/157 157/182/158
f 150/167/149 151/170/151 159/183/159 158/181/157
f 151/170/151 152/172/152 160/184/160 159/183/159
f 152/172/152 153/174/153 161/185/161 160/184/160
f 153/174/153 154/176/154 162/186/162 161/185/161
f 154/176/154 155/178/155 163/187/163 162/186/162
f 155/178/155 156/180/156 164/188/164 163/187/163
f 156/180/156 149/168/150 157/182/158 164/188/164
f 157/182/158 158/181/157 166/189/165 165/190/166
f 158/181/157 159/183/159 167/191/167 166/189/165
f 159/183/159 160/184/160 168/192/168 167/191/167
f 160/184/160 161/185/161 169/193/169 168/192/168
f 161/185/161 162/186/162 170/194/170 169/193/169
f 162/186/162 163/187/163 171/195/171 170/194/170
f 163/187/163 164/188/164 172/196/172 171/195/171
f 164/188/164 157/182/158 165/190/166 172/196/172
f 118/134/118 117/133/117 173/197/173
f 119/137/121 118/134/118 173/197/173
f 120/139/123 119/137/121 173/197/173
f 121/141/125 120/139/123 173/197/173
f 122/143/127 121/141/125 173/197/173
f 123/145/129 122/143/127 173/197/173
f 124/147/131 123/145/129 173/197/173
f 117/133/117 124/147/131 173/197/173
f 165/190/166 166/189/165 174/198/174
f 166/189/165 167/191/167 174/198/174
f 167/191/167 168/192/168 174/198/174
f 168/192/168 169/193/169 174/198/174
f 169/193/169 170/194/170 174/198/174
f 170/194/170 171/195/171 174/198/174
f 171/195/171 172/196/172 174/198/174
f 172/196/172 165/190/166 174/198/174
