# This file uses centimeters as units for non-parametric coordinates.

g default
v -2.161770 2.276678 0.110248
v -1.961145 2.276678 0.110248
v -1.302101 2.276678 0.110248
v -2.161770 2.415102 0.110248
v -1.961145 2.415102 0.110248
v -1.302101 2.415102 0.110248
v -2.161770 2.415102 -0.110248
v -1.961145 2.415102 -0.110248
v -1.302101 2.415102 -0.110248
v -2.161770 2.276678 -0.110248
v -1.961145 2.276678 -0.110248
v -1.302101 2.276678 -0.110248
v -1.670259 2.706501 0.110248
v -1.603248 2.603952 0.110248
v -1.603248 2.603952 -0.110248
v -1.670259 2.706501 -0.110248
v -1.537246 2.815912 0.110248
v -1.436004 2.753252 0.110248
v -1.436004 2.753252 -0.110248
v -1.537246 2.815912 -0.110248
v -1.489020 2.966126 0.110248
v -1.371569 2.973401 0.110248
v -1.371569 2.973401 -0.110248
v -1.489020 2.966126 -0.110248
v -1.517200 3.133155 0.110248
v -1.428538 3.216799 0.110248
v -1.428538 3.216799 -0.110248
v -1.517200 3.133155 -0.110248
v -1.843336 3.235122 0.110248
v -1.855687 3.349122 0.110248
v -1.855687 3.349122 -0.110248
v -1.843336 3.235122 -0.110248
v -2.002997 3.144652 0.110248
v -2.067352 3.242646 0.110248
v -2.067352 3.242646 -0.110248
v -2.002997 3.144652 -0.110248
v -2.100196 2.946784 0.110248
v -2.225225 2.964244 0.110248
v -2.225225 2.964244 -0.110248
v -2.100196 2.946784 -0.110248
v -1.696388 3.228871 0.110248
v -1.646370 3.341820 0.110248
v -1.646370 3.341820 -0.110248
v -1.696388 3.228871 -0.110248
v -2.067614 3.060322 0.110248
v -2.181600 3.101893 0.110248
v -2.181600 3.101893 -0.110248
v -2.067614 3.060322 -0.110248
v -2.900863 2.625937 0.131878
v -2.753772 2.773028 0.131878
v -3.047954 2.773028 0.131878
v -2.900863 2.920119 0.131878
v -3.077713 2.773029 -0.131878
v -2.875811 2.924825 -0.131878
v -2.900863 2.625937 -0.131878
v -2.774609 2.793865 -0.131878
v -2.377667 3.362777 -0.131878
v -2.377667 3.362777 0.131878
v -2.735007 3.154232 -0.131878
v -2.735007 3.154232 0.131878
v -3.070387 2.391824 -0.131878
v -3.070387 2.391824 0.131878
v -3.427727 2.183279 0.131878
v -3.427727 2.183279 -0.131878
v -3.404301 3.317478 0.131878
v -3.048082 3.142698 0.131878
v -3.048082 3.142698 -0.131878
v -3.404301 3.317478 -0.131878
v -2.757312 2.403358 -0.131878
v -2.401093 2.228579 -0.131878
v -2.401093 2.228579 0.131878
v -2.757312 2.403358 0.131878
vt 0.496290 0.552423
vt 0.521615 0.552660
vt 0.604804 0.553440
vt 0.496126 0.569896
vt 0.705466 0.554384
vt 0.622277 0.553604
vt 0.479078 0.524426
vt 0.522039 0.507355
vt 0.622538 0.525771
vt 0.496551 0.524590
vt 0.521876 0.524828
vt 0.605065 0.525608
vt 0.557824 0.607260
vt 0.756546 0.554863
vt 0.567439 0.483940
vt 0.406953 0.523750
vt 0.574484 0.621228
vt 0.784845 0.555128
vt 0.588726 0.465292
vt 0.385212 0.523546
vt 0.580394 0.640246
vt 0.813799 0.555400
vt 0.597120 0.437580
vt 0.365298 0.523359
vt 0.576639 0.661296
vt 0.845353 0.555695
vt 0.590217 0.406789
vt 0.343917 0.523159
vt 0.299447 0.550577
vt 0.533657 0.688156
vt 0.903754 0.528408
vt 0.537880 0.403985
vt 0.515305 0.662172
vt 0.933401 0.556521
vt 0.509612 0.402770
vt 0.276544 0.522527
vt 0.247963 0.550094
vt 0.487467 0.639137
vt 0.974772 0.529074
vt 0.505116 0.440077
vt 0.318013 0.550751
vt 0.877056 0.555993
vt 0.562869 0.390750
vt 0.318274 0.522919
vt 0.262873 0.550234
vt 0.956284 0.556735
vt 0.495025 0.420402
vt 0.263134 0.522402
vt 0.509363 0.425784
vt 0.990707 0.529223
vt 0.956545 0.528903
vt 0.489355 0.437725
vt 0.492811 0.656564
vt 0.974511 0.556906
vt 0.507248 0.651451
vt 0.503270 0.637081
vt 0.556422 0.404948
vt 0.299708 0.522745
vt 0.877317 0.528160
vt 0.536456 0.389581
vt 0.560087 0.687482
vt 0.903493 0.556240
vt 0.553907 0.673166
vt 0.535351 0.673781
vt 0.517620 0.415216
vt 0.933662 0.528688
vt 0.507065 0.674466
vt 0.276283 0.550360
vt 0.578927 0.417242
vt 0.845614 0.527863
vt 0.587731 0.671959
vt 0.343656 0.550992
vt 0.582286 0.438359
vt 0.814060 0.527567
vt 0.595210 0.641303
vt 0.365037 0.551192
vt 0.576021 0.457263
vt 0.785105 0.527295
vt 0.587338 0.613438
vt 0.384951 0.551379
vt 0.559102 0.470916
vt 0.756806 0.527030
vt 0.566404 0.594395
vt 0.406692 0.551583
vt 0.496715 0.507117
vt 0.705727 0.526551
vt 0.521451 0.570133
vt 0.478817 0.552259
vt 0.605229 0.508135
vt 0.604640 0.570913
vt 0.248224 0.522262
vt 0.990446 0.557056
vt 0.537477 0.267430
vt 0.581904 0.209011
vt 0.640323 0.253439
vt 0.595896 0.311857
vt 0.096782 0.780519
vt 0.096985 0.728967
vt 0.226908 0.729479
vt 0.226705 0.781031
vt 0.559975 0.756628
vt 0.621319 0.799575
vt 0.593714 0.840137
vt 0.534779 0.819993
vt 0.227297 0.374976
vt 0.227930 0.426525
vt 0.098016 0.428121
vt 0.097383 0.376572
vt 0.098125 0.603269
vt 0.228042 0.604671
vt 0.227462 0.658423
vt 0.097545 0.657021
vt 0.226413 0.303017
vt 0.096498 0.304613
vt 0.095838 0.250861
vt 0.225753 0.249265
vt 0.099051 0.512396
vt 0.229014 0.514547
vt 0.698918 0.818167
vt 0.790546 0.899705
vt 0.227085 0.693393
vt 0.097121 0.694296
vt 0.770193 0.049475
vt 0.714281 0.184320
vt 0.226874 0.340568
vt 0.096960 0.342164
vt 0.407781 0.472675
vt 0.463693 0.337830
vt 0.094677 0.159733
vt 0.224658 0.160171
vt 0.453212 0.793739
vt 0.361585 0.712202
vt 0.725138 0.294320
vt 0.803184 0.410542
vt 0.683394 0.614530
vt 0.666885 0.730993
vt 0.096339 0.075208
vt 0.226239 0.077698
vt 0.468737 0.997377
vt 0.485246 0.880914
vt 0.452836 0.227831
vt 0.374790 0.111609
vn 0.000000 0.000000 1.000000
vn 0.000000 0.000000 1.000000
vn 0.000000 0.000000 1.000000
vn 0.000000 0.000000 1.000000
vn 0.000000 0.000000 1.000000
vn 0.000000 0.000000 1.000000
vn -0.138304 -0.990390 0.000000
vn -0.138304 -0.990390 0.000000
vn -0.138304 -0.990390 0.000000
vn -0.138304 -0.990390 0.000000
vn 0.000000 1.000000 0.000000
vn 0.000000 1.000000 0.000000
vn 0.000000 1.000000 0.000000
vn 0.000000 1.000000 0.000000
vn 0.000000 0.000000 -1.000000
vn 0.000000 0.000000 -1.000000
vn 0.000000 0.000000 -1.000000
vn 0.000000 0.000000 -1.000000
vn 0.000000 0.000000 -1.000000
vn 0.000000 0.000000 -1.000000
vn 0.000000 -1.000000 0.000000
vn 0.000000 -1.000000 0.000000
vn 0.000000 -1.000000 0.000000
vn 0.000000 -1.000000 0.000000
vn 0.000000 -1.000000 0.000000
vn 0.000000 -1.000000 0.000000
vn 1.000000 0.000000 0.000000
vn 1.000000 0.000000 0.000000
vn 1.000000 0.000000 0.000000
vn 1.000000 0.000000 0.000000
vn -1.000000 0.000000 0.000000
vn -1.000000 0.000000 0.000000
vn -1.000000 0.000000 0.000000
vn -1.000000 0.000000 0.000000
vn 0.000000 0.000000 1.000000
vn 0.000000 0.000000 1.000000
vn 0.000000 0.000000 1.000000
vn 0.000000 0.000000 1.000000
vn 0.466681 -0.884426 0.000000
vn 0.466681 -0.884426 0.000000
vn 0.466681 -0.884426 0.000000
vn 0.466681 -0.884426 0.000000
vn 0.000000 0.000000 -1.000000
vn 0.000000 0.000000 -1.000000
vn 0.000000 0.000000 -1.000000
vn 0.000000 0.000000 -1.000000
vn -0.509976 0.860189 0.000000
vn -0.509976 0.860189 0.000000
vn -0.509976 0.860189 0.000000
vn -0.509976 0.860189 0.000000
vn -0.000000 0.000000 1.000000
vn -0.000000 0.000000 1.000000
vn -0.000000 0.000000 1.000000
vn -0.000000 0.000000 1.000000
vn 0.665955 -0.745992 0.000000
vn 0.665955 -0.745992 0.000000
vn 0.665955 -0.745992 0.000000
vn 0.665955 -0.745992 0.000000
vn 0.000000 0.000000 -1.000000
vn 0.000000 0.000000 -1.000000
vn 0.000000 0.000000 -1.000000
vn 0.000000 0.000000 -1.000000
vn -0.635259 0.772299 0.000000
vn -0.635259 0.772299 0.000000
vn -0.635259 0.772299 0.000000
vn -0.635259 0.772299 0.000000
vn 0.000000 0.000000 1.000000
vn 0.000000 0.000000 1.000000
vn 0.000000 0.000000 1.000000
vn 0.000000 0.000000 1.000000
vn 0.959736 -0.280903 0.000000
vn 0.959736 -0.280903 0.000000
vn 0.959736 -0.280903 0.000000
vn 0.959736 -0.280903 0.000000
vn 0.000000 0.000000 -1.000000
vn 0.000000 0.000000 -1.000000
vn 0.000000 0.000000 -1.000000
vn 0.000000 0.000000 -1.000000
vn -0.952135 0.305679 0.000000
vn -0.952135 0.305679 0.000000
vn -0.952135 0.305679 0.000000
vn -0.952135 0.305679 0.000000
vn 0.000000 0.000000 1.000000
vn 0.000000 0.000000 1.000000
vn 0.000000 0.000000 1.000000
vn 0.000000 0.000000 1.000000
vn 0.973685 0.227897 0.000000
vn 0.973685 0.227897 0.000000
vn 0.973685 0.227897 0.000000
vn 0.973685 0.227897 0.000000
vn 0.000000 0.000000 -1.000000
vn 0.000000 0.000000 -1.000000
vn 0.000000 0.000000 -1.000000
vn 0.000000 0.000000 -1.000000
vn -0.986065 -0.166360 0.000000
vn -0.986065 -0.166360 0.000000
vn -0.986065 -0.166360 0.000000
vn -0.986065 -0.166360 0.000000
vn -0.000000 0.000000 1.000000
vn -0.000000 0.000000 1.000000
vn -0.000000 0.000000 1.000000
vn -0.000000 0.000000 1.000000
vn 0.295908 0.955216 0.000000
vn 0.295908 0.955216 0.000000
vn 0.034861 0.999392 0.000000
vn 0.034861 0.999392 0.000000
vn -0.000000 0.000000 -1.000000
vn -0.000000 0.000000 -1.000000
vn 0.000000 0.000000 -1.000000
vn 0.000000 0.000000 -1.000000
vn -0.298408 -0.954438 0.000000
vn -0.298408 -0.954438 0.000000
vn -0.042503 -0.999096 0.000000
vn -0.042503 -0.999096 0.000000
vn 0.000000 0.000000 1.000000
vn 0.000000 0.000000 1.000000
vn 0.000000 0.000000 1.000000
vn 0.000000 0.000000 1.000000
vn -0.449382 0.893340 0.000000
vn -0.449382 0.893340 0.000000
vn -0.449382 0.893340 0.000000
vn -0.449382 0.893340 0.000000
vn 0.000000 0.000000 -1.000000
vn 0.000000 0.000000 -1.000000
vn 0.000000 0.000000 -1.000000
vn 0.000000 0.000000 -1.000000
vn 0.492995 -0.870032 0.000000
vn 0.492995 -0.870032 0.000000
vn 0.492995 -0.870032 0.000000
vn 0.492995 -0.870032 0.000000
vn 0.000000 0.000000 1.000000
vn 0.000000 0.000000 1.000000
vn 0.000000 0.000000 1.000000
vn 0.000000 0.000000 1.000000
vn -0.869871 0.493279 0.000000
vn -0.869871 0.493279 0.000000
vn -0.953270 0.302121 0.000000
vn -0.953270 0.302121 0.000000
vn 0.000000 0.000000 -1.000000
vn 0.000000 0.000000 -1.000000
vn 0.000000 0.000000 -1.000000
vn 0.000000 0.000000 -1.000000
vn 0.897552 -0.440908 0.000000
vn 0.897552 -0.440908 0.000000
vn 0.961204 -0.275839 0.000000
vn 0.961204 -0.275839 0.000000
vn -0.000000 0.000000 1.000000
vn -0.000000 0.000000 1.000000
vn 0.497776 0.867305 0.000000
vn 0.497776 0.867305 0.000000
vn -0.000000 0.000000 -1.000000
vn -0.000000 0.000000 -1.000000
vn -0.471161 -0.882047 0.000000
vn -0.471161 -0.882047 0.000000
vn 0.000000 0.000000 1.000000
vn 0.000000 0.000000 1.000000
vn -0.776420 0.630216 0.000000
vn -0.776420 0.630216 0.000000
vn 0.000000 0.000000 -1.000000
vn 0.000000 0.000000 -1.000000
vn 0.793769 -0.608220 0.000000
vn 0.793769 -0.608220 0.000000
vn 0.000000 0.000000 1.000000
vn 0.000000 0.000000 1.000000
vn 0.000000 0.000000 1.000000
vn 0.000000 0.000000 1.000000
vn 0.440489 0.897758 0.000000
vn 0.440489 0.897758 0.000000
vn 0.440489 0.897758 0.000000
vn 0.440489 0.897758 0.000000
vn 0.000000 0.000000 -1.000000
vn 0.000000 0.000000 -1.000000
vn 0.000000 0.000000 -1.000000
vn 0.000000 0.000000 -1.000000
vn -0.440488 -0.897758 0.000000
vn -0.440488 -0.897758 0.000000
vn -0.440488 -0.897758 0.000000
vn -0.440488 -0.897758 0.000000
vn -0.504046 0.863677 0.000000
vn -0.504046 0.863677 0.000000
vn -0.504046 0.863677 0.000000
vn -0.504046 0.863677 0.000000
vn 0.504045 -0.863678 0.000000
vn 0.504045 -0.863678 0.000000
vn 0.504045 -0.863678 0.000000
vn 0.504045 -0.863678 0.000000
vn 0.830604 -0.554171 -0.054699
vn 0.830604 -0.554171 -0.054699
vn 0.830604 -0.554171 -0.054699
vn 0.830604 -0.554171 -0.054699
vn 0.000000 0.000000 -1.000000
vn 0.000000 0.000000 -1.000000
vn 0.000000 0.000000 -1.000000
vn 0.000000 0.000000 -1.000000
vn -0.833499 0.551433 -0.034664
vn -0.833499 0.551433 -0.034664
vn -0.833499 0.551433 -0.034664
vn -0.833499 0.551433 -0.034664
vn 0.000000 0.000000 1.000000
vn 0.000000 0.000000 1.000000
vn 0.000000 0.000000 1.000000
vn 0.000000 0.000000 1.000000
vn 0.809954 -0.586494 0.000000
vn 0.809954 -0.586494 0.000000
vn 0.809954 -0.586494 0.000000
vn 0.809954 -0.586494 0.000000
vn -0.000000 0.000000 1.000000
vn -0.000000 0.000000 1.000000
vn -0.000000 0.000000 1.000000
vn -0.000000 0.000000 1.000000
vn -0.849411 0.525553 0.047918
vn -0.849411 0.525553 0.047918
vn -0.849411 0.525553 0.047918
vn -0.849411 0.525553 0.047918
vn 0.000000 0.000000 -1.000000
vn 0.000000 0.000000 -1.000000
vn 0.000000 0.000000 -1.000000
vn 0.000000 0.000000 -1.000000
vn 0.000000 0.000000 1.000000
vn 0.000000 0.000000 1.000000
vn 0.000000 0.000000 1.000000
vn 0.000000 0.000000 1.000000
vn 0.808697 0.586604 0.043641
vn 0.808697 0.586604 0.043641
vn 0.808697 0.586604 0.043641
vn 0.808697 0.586604 0.043641
vn -0.000000 0.000000 -1.000000
vn -0.000000 0.000000 -1.000000
vn -0.000000 0.000000 -1.000000
vn -0.000000 0.000000 -1.000000
vn -0.846202 -0.530720 0.047736
vn -0.846202 -0.530720 0.047736
vn -0.846202 -0.530720 0.047736
vn -0.846202 -0.530720 0.047736
vn -0.000000 0.000000 -1.000000
vn -0.000000 0.000000 -1.000000
vn -0.000000 0.000000 -1.000000
vn -0.000000 0.000000 -1.000000
vn 0.836708 0.547530 -0.011422
vn 0.836708 0.547530 -0.011422
vn 0.836708 0.547530 -0.011422
vn 0.836708 0.547530 -0.011422
vn 0.000000 0.000000 1.000000
vn 0.000000 0.000000 1.000000
vn 0.000000 0.000000 1.000000
vn 0.000000 0.000000 1.000000
vn -0.840380 -0.541997 0.000000
vn -0.840380 -0.541997 0.000000
vn -0.840380 -0.541997 0.000000
vn -0.840380 -0.541997 0.000000
s 1
g pCube3
f 1/1/1 2/2/2 5/87/3 4/4/4
f 2/2/2 3/3/5 6/90/6 5/87/3
s off
f 37/92/7 38/54/8 39/39/9 40/50/10
f 5/5/11 6/6/12 9/9/13 8/86/14
s 2
f 7/85/15 8/8/16 11/11/17 10/10/18
f 8/8/16 9/89/19 12/12/20 11/11/17
s 3
f 10/10/21 11/11/22 2/2/23 1/1/24
f 11/11/22 12/12/25 3/3/26 2/2/23
s off
f 3/3/27 12/12/28 9/9/29 6/6/30
f 10/10/31 1/1/32 4/88/33 7/7/34
f 4/4/35 5/87/36 14/83/37 13/13/38
f 5/5/39 8/86/40 15/82/41 14/14/42
f 8/8/43 7/85/44 16/81/45 15/15/46
f 7/7/47 4/88/48 13/84/49 16/16/50
f 13/13/51 14/83/52 18/79/53 17/17/54
f 14/14/55 15/82/56 19/78/57 18/18/58
f 15/15/59 16/81/60 20/77/61 19/19/62
f 16/16/63 13/84/64 17/80/65 20/20/66
f 17/17/67 18/79/68 22/75/69 21/21/70
f 18/18/71 19/78/72 23/74/73 22/22/74
f 19/19/75 20/77/76 24/73/77 23/23/78
f 20/20/79 17/80/80 21/76/81 24/24/82
f 21/21/83 22/75/84 26/71/85 25/25/86
f 22/22/87 23/74/88 27/70/89 26/26/90
f 23/23/91 24/73/92 28/69/93 27/27/94
f 24/24/95 21/76/96 25/72/97 28/28/98
s 4
f 41/63/99 42/61/100 30/30/101 29/64/102
s 5
f 42/42/103 43/59/104 31/31/105 30/62/106
s 6
f 43/43/107 44/57/108 32/32/109 31/60/110
s 7
f 44/44/111 41/41/112 29/29/113 32/58/114
s off
f 29/64/115 30/30/116 34/67/117 33/33/118
f 30/62/119 31/31/120 35/66/121 34/34/122
f 31/60/123 32/32/124 36/65/125 35/35/126
f 32/58/127 29/29/128 33/68/129 36/36/130
s 8
f 45/55/131 46/53/132 38/38/133 37/56/134
s 9
f 46/46/135 47/51/136 39/39/137 38/54/138
s 10
f 47/47/139 48/49/140 40/40/141 39/52/142
s 11
f 48/48/143 45/45/144 37/37/145 40/91/146
s 4
f 25/25/147 26/71/148 42/61/100 41/63/99
s 5
f 26/26/149 27/70/150 43/59/104 42/42/103
s 6
f 27/27/151 28/69/152 44/57/108 43/43/107
s 7
f 28/28/153 25/72/154 41/41/112 44/44/111
s 8
f 33/33/155 34/67/156 46/53/132 45/55/131
s 9
f 34/34/157 35/66/158 47/51/136 46/46/135
s 10
f 35/35/159 36/65/160 48/49/140 47/47/139
s 11
f 36/36/161 33/68/162 45/45/144 48/48/143
s off
f 49/93/163 50/94/164 52/95/165 51/96/166
f 65/97/167 66/98/168 67/99/169 68/100/170
f 53/101/171 54/102/172 56/103/173 55/104/174
f 69/105/175 70/106/176 71/107/177 72/108/178
f 58/109/179 57/110/180 59/111/181 60/112/182
f 61/113/183 62/114/184 63/115/185 64/116/186
f 50/117/187 56/118/188 57/110/189 58/109/190
f 56/103/191 54/102/192 59/119/193 57/120/194
f 54/121/195 52/122/196 60/112/197 59/111/198
f 52/95/199 50/94/200 58/123/201 60/124/202
f 55/125/203 49/126/204 62/114/205 61/113/206
f 49/93/207 51/96/208 63/127/209 62/128/210
f 51/129/211 53/130/212 64/116/213 63/115/214
f 53/101/215 55/104/216 61/131/217 64/132/218
f 51/96/219 52/95/220 66/133/221 65/134/222
f 52/122/223 54/121/224 67/99/225 66/98/226
f 54/102/227 53/101/228 68/135/229 67/136/230
f 53/130/231 51/129/232 65/137/233 68/138/234
f 55/104/235 56/103/236 70/139/237 69/140/238
f 56/118/239 50/117/240 71/107/241 70/106/242
f 50/94/243 49/93/244 72/141/245 71/142/246
f 49/126/247 55/125/248 69/105/249 72/108/250
