# This file uses centimeters as units for non-parametric coordinates.

g default
v 0.353553 0.000000 -0.353553
v 0.000000 0.000000 -0.500000
v -0.353553 0.000000 -0.353553
v -0.500000 0.000000 0.000000
v -0.353553 0.000000 0.353553
v 0.000000 0.000000 0.500000
v 0.353553 0.000000 0.353553
v 0.500000 0.000000 0.000000
v 0.313367 2.000000 -0.313367
v 0.000000 2.000000 -0.443167
v -0.313367 2.000000 -0.313367
v -0.443167 2.000000 0.000000
v -0.313367 2.000000 0.313367
v 0.000000 2.000000 0.443167
v 0.313367 2.000000 0.313367
v 0.443167 2.000000 0.000000
v 0.200529 4.000000 -0.314842
v -0.114313 4.000000 -0.445254
v -0.429155 4.000000 -0.314842
v -0.559567 4.000000 0.000000
v -0.429155 4.000000 0.314842
v -0.114313 4.000000 0.445254
v 0.200529 4.000000 0.314842
v 0.330941 4.000000 0.000000
v 0.000195 6.000000 -0.312610
v -0.312415 6.000000 -0.442097
v -0.625025 6.000000 -0.312610
v -0.754512 6.000000 0.000000
v -0.625025 6.000000 0.312610
v -0.312415 6.000000 0.442097
v 0.000195 6.000000 0.312610
v 0.129682 6.000000 0.000000
v -0.395931 8.000000 -0.285716
v -0.681648 8.000000 -0.404064
v -0.967364 8.000000 -0.285716
v -1.085711 8.000000 0.000000
v -0.967364 8.000000 0.285716
v -0.681648 8.000000 0.404064
v -0.395931 8.000000 0.285716
v -0.277584 8.000000 0.000000
v -0.438001 8.354346 -0.285716
v -0.723717 8.354346 -0.404064
v -1.009433 8.354346 -0.285716
v -1.127781 8.354346 0.000000
v -1.009433 8.354346 0.285716
v -0.723717 8.354346 0.404064
v -0.438000 8.354346 0.285716
v -0.319653 8.354346 0.000000
v -0.561435 8.479700 -0.162282
v -0.723717 8.479700 -0.229501
v -0.723717 8.479700 0.000000
v -0.885999 8.479700 -0.162282
v -0.953218 8.479700 0.000000
v -0.885999 8.479700 0.162282
v -0.723717 8.479700 0.229501
v -0.561435 8.479700 0.162282
v -0.494216 8.479700 0.000000
vt 0.084932 0.000000
vt 0.169209 0.000020
vt 0.169765 0.224280
vt 0.092617 0.221519
vt 0.252472 0.002207
vt 0.248084 0.228512
vt 0.334881 0.004953
vt 0.327317 0.231403
vt 0.417041 0.007515
vt 0.406767 0.232250
vt 0.499615 0.010323
vt 0.485581 0.231867
vt 0.583025 0.014868
vt 0.563167 0.233065
vt 0.667156 0.022972
vt 0.016642 0.222793
vt 0.166195 0.983756
vt 0.213526 0.981416
vt 0.264505 0.984171
vt 0.317438 0.985367
vt 0.369732 0.981645
vt 0.419609 0.977169
vt 0.466036 0.978761
vt 0.127577 1.000000
vt 0.168042 0.448717
vt 0.092293 0.441452
vt 0.244328 0.457432
vt 0.321811 0.461879
vt 0.399577 0.460030
vt 0.476426 0.454277
vt 0.552643 0.450418
vt 0.016618 0.440713
vt 0.167119 0.674903
vt 0.093523 0.667224
vt 0.241175 0.685048
vt 0.317363 0.689081
vt 0.393962 0.685747
vt 0.468732 0.677175
vt 0.542864 0.672124
vt 0.019183 0.671107
vt 0.199445 0.904136
vt 0.137204 0.905820
vt 0.258571 0.908830
vt 0.317158 0.911282
vt 0.375526 0.906829
vt 0.434497 0.901455
vt 0.496391 0.904297
vt 0.072501 0.922686
vt 0.209967 0.942720
vt 0.152189 0.944478
vt 0.264937 0.947176
vt 0.318700 0.949685
vt 0.371675 0.945236
vt 0.425376 0.939813
vt 0.481409 0.942121
vt 0.091536 0.967115
vt 0.539765 0.967205
vt 0.503250 0.995843
vt 0.560104 0.924059
vt 0.617003 0.679499
vt 0.628353 0.453448
vt 0.639227 0.238293
vt 0.000000 0.003759
vn 0.706821 0.028405 -0.706822
vn -0.000000 0.028405 -0.999596
vn 0.013345 0.014984 -0.999799
vn 0.713397 0.034004 -0.699935
vn -0.706822 0.028405 -0.706821
vn -0.700459 -0.005207 -0.713673
vn -0.999596 0.028405 0.000000
vn -0.999903 -0.013900 0.000000
vn -0.706822 0.028405 0.706821
vn -0.700459 -0.005207 0.713673
vn 0.000000 0.028405 0.999596
vn 0.013345 0.014984 0.999799
vn 0.706821 0.028405 0.706822
vn 0.713397 0.034004 0.699935
vn 0.999596 0.028405 -0.000000
vn 0.999137 0.041530 -0.000000
vn 0.344065 0.873635 -0.344066
vn 0.000000 0.873635 -0.486582
vn 0.000000 1.000000 0.000001
vn -0.344065 0.873635 -0.344065
vn -0.486582 0.873635 0.000001
vn -0.344065 0.873635 0.344065
vn -0.000000 0.873635 0.486583
vn 0.344065 0.873635 0.344067
vn 0.486582 0.873635 -0.000001
vn 0.009923 0.001831 -0.999949
vn 0.710961 0.055747 -0.701019
vn -0.701128 -0.054450 -0.710953
vn -0.996929 -0.078311 0.000000
vn -0.701128 -0.054450 0.710953
vn 0.009923 0.001831 0.999949
vn 0.710961 0.055747 0.701019
vn 0.997009 0.077279 -0.000000
vn 0.017606 0.015387 -0.999727
vn 0.711427 0.109590 -0.694163
vn -0.695608 -0.087404 -0.713085
vn -0.991297 -0.131644 0.000000
vn -0.695608 -0.087404 0.713085
vn 0.017606 0.015387 0.999727
vn 0.711427 0.109590 0.694163
vn 0.989336 0.145651 -0.000000
vn -0.084762 0.003299 -0.996396
vn 0.659783 0.140605 -0.738185
vn -0.745706 -0.118827 -0.655594
vn -0.986564 -0.163375 0.000000
vn -0.745706 -0.118827 0.655594
vn -0.084762 0.003299 0.996396
vn 0.659783 0.140605 0.738185
vn 0.979890 0.199538 -0.000000
vn 0.733168 0.087045 -0.674454
vn 0.056628 0.006723 -0.998373
vn -0.045465 0.231573 -0.971755
vn 0.654780 0.289893 -0.698015
vn -0.677195 -0.080399 -0.731398
vn -0.719208 0.177653 -0.671699
vn -0.993026 -0.117896 0.000000
vn -0.987621 0.156861 0.000000
vn -0.677195 -0.080399 0.731398
vn -0.719208 0.177653 0.671699
vn 0.056627 0.006723 0.998373
vn -0.045466 0.231573 0.971754
vn 0.733168 0.087045 0.674453
vn 0.654780 0.289893 0.698015
vn 0.993026 0.117896 -0.000000
vn 0.949095 0.314989 -0.000000
s 1
g pCylinder1
f 1/1/1 2/2/2 10/3/3 9/4/4
f 2/2/2 3/5/5 11/6/6 10/3/3
f 3/5/5 4/7/7 12/8/8 11/6/6
f 4/7/7 5/9/9 13/10/10 12/8/8
f 5/9/9 6/11/11 14/12/12 13/10/10
f 6/11/11 7/13/13 15/14/14 14/12/12
f 7/13/13 8/15/15 16/62/16 15/14/14
f 8/63/15 1/1/1 9/4/4 16/16/16
s 2
f 49//17 50//18 51//19
f 50//18 52//20 51//19
f 52//20 53//21 51//19
f 53//21 54//22 51//19
f 54//22 55//23 51//19
f 55//23 56//24 51//19
f 56//24 57//25 51//19
f 57//25 49//17 51//19
s 1
f 9/4/4 10/3/3 18/25/26 17/26/27
f 10/3/3 11/6/6 19/27/28 18/25/26
f 11/6/6 12/8/8 20/28/29 19/27/28
f 12/8/8 13/10/10 21/29/30 20/28/29
f 13/10/10 14/12/12 22/30/31 21/29/30
f 14/12/12 15/14/14 23/31/32 22/30/31
f 15/14/14 16/62/16 24/61/33 23/31/32
f 16/16/16 9/4/4 17/26/27 24/32/33
f 17/26/27 18/25/26 26/33/34 25/34/35
f 18/25/26 19/27/28 27/35/36 26/33/34
f 19/27/28 20/28/29 28/36/37 27/35/36
f 20/28/29 21/29/30 29/37/38 28/36/37
f 21/29/30 22/30/31 30/38/39 29/37/38
f 22/30/31 23/31/32 31/39/40 30/38/39
f 23/31/32 24/61/33 32/60/41 31/39/40
f 24/32/33 17/26/27 25/34/35 32/40/41
f 25/34/35 26/33/34 34/41/42 33/42/43
f 26/33/34 27/35/36 35/43/44 34/41/42
f 27/35/36 28/36/37 36/44/45 35/43/44
f 28/36/37 29/37/38 37/45/46 36/44/45
f 29/37/38 30/38/39 38/46/47 37/45/46
f 30/38/39 31/39/40 39/47/48 38/46/47
f 31/39/40 32/60/41 40/59/49 39/47/48
f 32/40/41 25/34/35 33/42/43 40/48/49
s 2
f 33/42/50 34/41/51 42/49/52 41/50/53
f 34/41/51 35/43/54 43/51/55 42/49/52
f 35/43/54 36/44/56 44/52/57 43/51/55
f 36/44/56 37/45/58 45/53/59 44/52/57
f 37/45/58 38/46/60 46/54/61 45/53/59
f 38/46/60 39/47/62 47/55/63 46/54/61
f 39/47/62 40/59/64 48/57/65 47/55/63
f 40/48/64 33/42/50 41/50/53 48/56/65
f 41/50/53 42/49/52 50/18/18 49/17/17
f 42/49/52 43/51/55 52/19/20 50/18/18
f 43/51/55 44/52/57 53/20/21 52/19/20
f 44/52/57 45/53/59 54/21/22 53/20/21
f 45/53/59 46/54/61 55/22/23 54/21/22
f 46/54/61 47/55/63 56/23/24 55/22/23
f 47/55/63 48/57/65 57/58/25 56/23/24
f 48/56/65 41/50/53 49/17/17 57/24/25
