# This file uses centimeters as units for non-parametric coordinates.

mtllib Rock4.mtl
g default
v 0.000000 0.000000 0.915648
v 0.877979 0.000000 0.581067
v -0.877979 0.000000 0.581067
v 1.128528 0.000000 0.000000
v -1.128528 0.000000 0.000000
v 0.000000 0.000000 -0.915648
v -0.877979 0.000000 -0.581067
v 0.877979 0.000000 -0.581067
v 0.705219 2.249735 0.386669
v 0.000000 2.391526 0.643459
v 0.000000 1.870854 0.781760
v 0.749599 1.800478 0.496102
v -0.705219 2.249735 0.386669
v -0.749599 1.800478 0.496102
v 0.566305 2.541839 0.341820
v 0.000000 2.767723 0.412432
v -0.566305 2.541839 0.341820
v 0.633044 2.635695 0.000000
v 0.000000 2.971125 0.000000
v -0.633044 2.635695 0.000000
v 0.865537 2.206639 0.000000
v -0.865537 2.206639 0.000000
v 0.963512 1.725965 0.000000
v -0.963512 1.725965 0.000000
v -0.705219 2.249735 -0.386669
v 0.000000 2.391526 -0.643459
v 0.000000 1.870854 -0.781760
v -0.749599 1.800478 -0.496102
v 0.705219 2.249735 -0.386669
v 0.749599 1.800478 -0.496102
v -0.566305 2.541839 -0.341820
v 0.000000 2.767723 -0.412432
v 0.566305 2.541839 -0.341820
v 0.000000 0.561256 0.943004
v 0.904209 0.540143 0.598427
v 1.162243 0.517790 0.000000
v 0.904209 0.540143 -0.598427
v 0.000000 0.561256 -0.943004
v -0.904209 0.540143 -0.598427
v -1.162243 0.517790 0.000000
v -0.904209 0.540143 0.598427
vt 0.318284 0.396270
vt 0.344876 0.500026
vt 0.263816 0.500013
vt 0.256900 0.392900
vt 0.318251 0.603773
vt 0.256866 0.607124
vt 0.358467 0.406465
vt 0.414640 0.465529
vt 0.414629 0.534546
vt 0.358437 0.593591
vt 0.386867 0.358964
vt 0.468875 0.396896
vt 0.468842 0.603196
vt 0.386822 0.641101
vt 0.329304 0.332572
vt 0.329251 0.667475
vt 0.271176 0.307827
vt 0.271115 0.692202
vt 0.366549 0.719585
vt 0.458634 0.765069
vt 0.407402 0.836734
vt 0.322208 0.763528
vt 0.366618 0.280474
vt 0.322291 0.236517
vt 0.407508 0.163337
vt 0.458718 0.235019
vt 0.401273 0.694803
vt 0.481966 0.690005
vt 0.482027 0.310091
vt 0.401335 0.305267
vt 0.079065 0.499984
vt 0.089595 0.359400
vt 0.089551 0.640572
vt 0.118289 0.252465
vt 0.118211 0.747516
vt 0.251202 0.962065
vt 0.169496 0.846019
vt 0.169605 0.153978
vt 0.251347 0.037958
vt 0.000000 0.499972
vt 0.017457 0.345929
vt 0.053102 0.229880
vt 0.102842 0.121396
vt 0.179060 0.000000
vt 0.178903 1.000000
vt 0.102723 0.878580
vt 0.053017 0.770080
vt 0.017409 0.654020
vn 0.369916 0.245770 0.895968
vn 0.369916 0.245770 0.895968
vn 0.369916 0.245770 0.895968
vn 0.369916 0.245770 0.895968
vn -0.369917 0.245770 0.895968
vn -0.369917 0.245770 0.895968
vn 0.338033 0.418287 0.843072
vn 0.338033 0.418287 0.843072
vn -0.338033 0.418287 0.843072
vn 0.412137 0.834638 0.365407
vn 0.412137 0.834638 0.365407
vn -0.412137 0.834638 0.365407
vn 0.842173 0.452014 0.293987
vn -0.842173 0.452014 0.293987
vn 0.913715 0.182593 0.363023
vn -0.913714 0.182593 0.363023
vn -0.369916 0.245770 -0.895968
vn -0.369916 0.245770 -0.895968
vn -0.369916 0.245770 -0.895968
vn -0.369916 0.245770 -0.895968
vn 0.369917 0.245770 -0.895968
vn 0.369917 0.245770 -0.895968
vn -0.338033 0.418287 -0.843072
vn -0.338033 0.418287 -0.843072
vn 0.338033 0.418287 -0.843072
vn 0.359053 0.065538 0.931013
vn 0.359024 0.063521 0.931164
vn -0.359024 0.063521 0.931164
vn 0.918368 0.079853 0.387588
vn -0.918368 0.079853 0.387588
vn -0.359053 0.065538 -0.931013
vn -0.359024 0.063521 -0.931164
vn 0.359024 0.063521 -0.931164
vn 0.355238 -0.046364 0.933625
vn 0.355238 -0.046364 0.933625
vn 0.916301 -0.058422 0.396206
vn 0.916301 -0.058422 -0.396206
vn 0.355238 -0.046364 -0.933625
vn -0.355238 -0.046364 -0.933625
vn -0.916301 -0.058422 -0.396206
vn -0.916301 -0.058422 0.396206
s 1
g polySurface4
usemtl initialShadingGroup
f 9/1/1 10/2/2 11/3/3 12/4/4
f 13/5/5 14/6/6 11/3/3 10/2/2
f 15/7/7 16/8/8 10/2/2 9/1/1
f 16/9/8 17/10/9 13/5/5 10/2/2
f 18/11/10 19/12/11 16/8/8 15/7/7
f 19/13/11 20/14/12 17/10/9 16/9/8
f 9/1/1 21/15/13 18/11/10 15/7/7
f 22/16/14 13/5/5 17/10/9 20/14/12
f 9/1/1 12/4/4 23/17/15 21/15/13
f 14/6/6 13/5/5 22/16/14 24/18/16
f 25/19/17 26/20/18 27/21/19 28/22/20
f 29/23/21 30/24/22 27/25/19 26/26/18
f 31/27/23 32/28/24 26/20/18 25/19/17
f 32/29/24 33/30/25 29/23/21 26/26/18
f 20/14/12 19/13/11 32/28/24 31/27/23
f 19/12/11 18/11/10 33/30/25 32/29/24
f 25/19/17 22/16/14 20/14/12 31/27/23
f 21/15/13 29/23/21 33/30/25 18/11/10
f 25/19/17 28/22/20 24/18/16 22/16/14
f 30/24/22 29/23/21 21/15/13 23/17/15
f 34/31/26 35/32/27 12/4/4 11/3/3
f 41/33/28 34/31/26 11/3/3 14/6/6
f 35/32/27 36/34/29 23/17/15 12/4/4
f 40/35/30 41/33/28 14/6/6 24/18/16
f 38/36/31 39/37/32 28/22/20 27/21/19
f 37/38/33 38/39/31 27/25/19 30/24/22
f 39/37/32 40/35/30 24/18/16 28/22/20
f 36/34/29 37/38/33 30/24/22 23/17/15
f 1/40/34 2/41/35 35/32/27 34/31/26
f 2/41/35 4/42/36 36/34/29 35/32/27
f 4/42/36 8/43/37 37/38/33 36/34/29
f 8/43/37 6/44/38 38/39/31 37/38/33
f 6/45/38 7/46/39 39/37/32 38/36/31
f 7/46/39 5/47/40 40/35/30 39/37/32
f 5/47/40 3/48/41 41/33/28 40/35/30
f 3/48/41 1/40/34 34/31/26 41/33/28
g default
v 0.000000 0.000000 0.915648
v 0.877979 0.000000 0.581067
v -0.877979 0.000000 0.581067
v 1.128528 0.000000 0.000000
v -1.128528 0.000000 0.000000
v 0.000000 0.000000 -0.915648
v -0.877979 0.000000 -0.581067
v 0.877979 0.000000 -0.581067
v 0.705219 2.249735 0.386669
v 0.000000 2.391526 0.643459
v 0.000000 1.870854 0.781760
v 0.749599 1.800478 0.496102
v -0.705219 2.249735 0.386669
v -0.749599 1.800478 0.496102
v 0.566305 2.541839 0.341820
v 0.000000 2.767723 0.412432
v -0.566305 2.541839 0.341820
v 0.633044 2.635695 0.000000
v 0.000000 2.971125 0.000000
v -0.633044 2.635695 0.000000
v 0.865537 2.206639 0.000000
v -0.865537 2.206639 0.000000
v 0.963512 1.725965 0.000000
v -0.963512 1.725965 0.000000
v -0.705219 2.249735 -0.386669
v 0.000000 2.391526 -0.643459
v 0.000000 1.870854 -0.781760
v -0.749599 1.800478 -0.496102
v 0.705219 2.249735 -0.386669
v 0.749599 1.800478 -0.496102
v -0.566305 2.541839 -0.341820
v 0.000000 2.767723 -0.412432
v 0.566305 2.541839 -0.341820
v 0.000000 0.561256 0.943004
v 0.904209 0.540143 0.598427
v 1.162243 0.517790 0.000000
v 0.904209 0.540143 -0.598427
v 0.000000 0.561256 -0.943004
v -0.904209 0.540143 -0.598427
v -1.162243 0.517790 0.000000
v -0.904209 0.540143 0.598427
vt 0.318284 0.396270
vt 0.344876 0.500026
vt 0.263816 0.500013
vt 0.256900 0.392900
vt 0.318251 0.603773
vt 0.256866 0.607124
vt 0.358467 0.406465
vt 0.414640 0.465529
vt 0.414629 0.534546
vt 0.358437 0.593591
vt 0.386867 0.358964
vt 0.468875 0.396896
vt 0.468842 0.603196
vt 0.386822 0.641101
vt 0.329304 0.332572
vt 0.329251 0.667475
vt 0.271176 0.307827
vt 0.271115 0.692202
vt 0.366549 0.719585
vt 0.458634 0.765069
vt 0.407402 0.836734
vt 0.322208 0.763528
vt 0.366618 0.280474
vt 0.322291 0.236517
vt 0.407508 0.163337
vt 0.458718 0.235019
vt 0.401273 0.694803
vt 0.481966 0.690005
vt 0.482027 0.310091
vt 0.401335 0.305267
vt 0.079065 0.499984
vt 0.089595 0.359400
vt 0.089551 0.640572
vt 0.118289 0.252465
vt 0.118211 0.747516
vt 0.251202 0.962065
vt 0.169496 0.846019
vt 0.169605 0.153978
vt 0.251347 0.037958
vt 0.000000 0.499972
vt 0.017457 0.345929
vt 0.053102 0.229880
vt 0.102842 0.121396
vt 0.179060 0.000000
vt 0.178903 1.000000
vt 0.102723 0.878580
vt 0.053017 0.770080
vt 0.017409 0.654020
vn 0.369916 0.245770 0.895968
vn 0.369916 0.245770 0.895968
vn 0.369916 0.245770 0.895968
vn 0.369916 0.245770 0.895968
vn -0.369917 0.245770 0.895968
vn -0.369917 0.245770 0.895968
vn 0.338033 0.418287 0.843072
vn 0.338033 0.418287 0.843072
vn -0.338033 0.418287 0.843072
vn 0.412137 0.834638 0.365407
vn 0.412137 0.834638 0.365407
vn -0.412137 0.834638 0.365407
vn 0.842173 0.452014 0.293987
vn -0.842173 0.452014 0.293987
vn 0.913715 0.182593 0.363023
vn -0.913714 0.182593 0.363023
vn -0.369916 0.245770 -0.895968
vn -0.369916 0.245770 -0.895968
vn -0.369916 0.245770 -0.895968
vn -0.369916 0.245770 -0.895968
vn 0.369917 0.245770 -0.895968
vn 0.369917 0.245770 -0.895968
vn -0.338033 0.418287 -0.843072
vn -0.338033 0.418287 -0.843072
vn 0.338033 0.418287 -0.843072
vn 0.359053 0.065538 0.931013
vn 0.359024 0.063521 0.931164
vn -0.359024 0.063521 0.931164
vn 0.918368 0.079853 0.387588
vn -0.918368 0.079853 0.387588
vn -0.359053 0.065538 -0.931013
vn -0.359024 0.063521 -0.931164
vn 0.359024 0.063521 -0.931164
vn 0.355238 -0.046364 0.933625
vn 0.355238 -0.046364 0.933625
vn 0.916301 -0.058422 0.396206
vn 0.916301 -0.058422 -0.396206
vn 0.355238 -0.046364 -0.933625
vn -0.355238 -0.046364 -0.933625
vn -0.916301 -0.058422 -0.396206
vn -0.916301 -0.058422 0.396206
s 1
g polySurface4
f 50/49/42 51/50/43 52/51/44 53/52/45
f 54/53/46 55/54/47 52/51/44 51/50/43
f 56/55/48 57/56/49 51/50/43 50/49/42
f 57/57/49 58/58/50 54/53/46 51/50/43
f 59/59/51 60/60/52 57/56/49 56/55/48
f 60/61/52 61/62/53 58/58/50 57/57/49
f 50/49/42 62/63/54 59/59/51 56/55/48
f 63/64/55 54/53/46 58/58/50 61/62/53
f 50/49/42 53/52/45 64/65/56 62/63/54
f 55/54/47 54/53/46 63/64/55 65/66/57
f 66/67/58 67/68/59 68/69/60 69/70/61
f 70/71/62 71/72/63 68/73/60 67/74/59
f 72/75/64 73/76/65 67/68/59 66/67/58
f 73/77/65 74/78/66 70/71/62 67/74/59
f 61/62/53 60/61/52 73/76/65 72/75/64
f 60/60/52 59/59/51 74/78/66 73/77/65
f 66/67/58 63/64/55 61/62/53 72/75/64
f 62/63/54 70/71/62 74/78/66 59/59/51
f 66/67/58 69/70/61 65/66/57 63/64/55
f 71/72/63 70/71/62 62/63/54 64/65/56
f 75/79/67 76/80/68 53/52/45 52/51/44
f 82/81/69 75/79/67 52/51/44 55/54/47
f 76/80/68 77/82/70 64/65/56 53/52/45
f 81/83/71 82/81/69 55/54/47 65/66/57
f 79/84/72 80/85/73 69/70/61 68/69/60
f 78/86/74 79/87/72 68/73/60 71/72/63
f 80/85/73 81/83/71 65/66/57 69/70/61
f 77/82/70 78/86/74 71/72/63 64/65/56
f 42/88/75 43/89/76 76/80/68 75/79/67
f 43/89/76 45/90/77 77/82/70 76/80/68
f 45/90/77 49/91/78 78/86/74 77/82/70
f 49/91/78 47/92/79 79/87/72 78/86/74
f 47/93/79 48/94/80 80/85/73 79/84/72
f 48/94/80 46/95/81 81/83/71 80/85/73
f 46/95/81 44/96/82 82/81/69 81/83/71
f 44/96/82 42/88/75 75/79/67 82/81/69
